<svg width="308" height="309" viewBox="0 0 308 309" fill="none" xmlns="http://www.w3.org/2000/svg">
    <g filter="url(#filter0_d_38_15)">
        <path fill-rule="evenodd" clip-rule="evenodd" d="M133.255 0.959821C107.468 4.50542 79.6433 16.971 58.9701 34.2386C41.3208 48.9808 29.863 63.3419 20.1089 82.9473C3.34827 116.635 -0.315783 151.853 9.03468 189.391C15.552 215.555 28.1622 238.143 46.5799 256.641C70.636 280.802 98.7242 295.016 132.058 299.896C142.066 301.362 164.601 301.369 175.161 299.91C204.662 295.835 230.668 283.4 255.39 261.55C279.98 239.818 297.366 206.709 303.141 170.617C304.289 163.445 304.285 140.654 303.136 131.748C302.057 123.392 298.38 108.194 295.38 99.6907C287.768 78.1105 277.759 61.8066 262.352 45.8837C238.209 20.9317 204.573 4.33088 170.689 0.643434C161.666 -0.338402 141.458 -0.16804 133.255 0.959821ZM140.911 7.98287C130.067 9.31794 117.958 12.7961 104.567 18.4194C74.2548 31.1499 58.8059 46.4949 52.8432 69.7968C49.2641 83.7811 49.9871 97.7451 55.0173 111.809C57.3577 118.351 57.3507 120.204 54.9867 120.204C53.7041 120.204 51.832 122.559 51.832 124.171C51.832 127.408 56.7153 128.516 58.801 125.753C60.1087 124.021 61.575 124.397 61.575 126.463C61.575 127.184 62.2187 128.224 63.0051 128.774C63.7915 129.325 64.674 130.673 64.9649 131.769C65.5807 134.088 68.4368 134.86 69.8969 133.103C70.9916 131.785 72.9701 131.705 73.9945 132.938C74.5631 133.623 74.3077 134.508 72.9763 136.466C71.9986 137.903 70.7146 140.499 70.1231 142.234C69.2135 144.901 69.1961 145.483 70.0089 145.997C71.6019 147.006 71.9199 146.766 73.737 143.184C74.6974 141.29 76.8659 138.044 78.5556 135.971L81.6281 132.202L75.6689 126.752C63.3649 115.501 58.0891 103.238 58.1002 85.9123C58.1065 76.1294 59.8261 68.5695 63.9815 60.0557C67.8383 52.1537 73.1079 45.7856 80.2279 40.4252C98.4528 26.7038 119.637 25.0447 138.347 35.8734C144.94 39.6888 153.902 49.1317 157.479 56.0317C164.478 69.5312 165.734 86.6674 160.77 100.93C156.74 112.508 146.51 124.682 137.083 129.117C130.511 132.209 130.243 132.363 129.962 133.205C129.827 133.608 131.308 135.081 133.253 136.476C150.678 148.984 141.755 177.22 120.376 177.222C117.694 177.222 114.484 176.931 113.243 176.576L110.986 175.929V181.83C110.986 189.356 111.815 192.765 115.545 200.578C120.91 211.815 132.007 221.742 144.697 226.658C153.798 230.183 161.542 231.565 172.923 231.693C187.547 231.859 190.474 230.695 182.284 227.972C175.37 225.673 171.658 223.344 166.311 217.948C160.951 212.541 156.995 205.611 155.183 198.458C153.808 193.031 153.828 181.746 155.224 176.279C159.547 159.334 172.898 147.822 190.843 145.565C192.852 145.313 194.497 144.832 194.497 144.496C194.497 144.161 193.527 143.174 192.342 142.302C188.371 139.382 187.359 135.814 189.326 131.672C190.687 128.808 193.607 127.498 197.118 128.176C198.547 128.453 200.656 128.85 201.804 129.058C202.952 129.267 204.639 130.02 205.552 130.731C208.612 133.116 213.287 131.972 213.287 128.839C213.287 126.135 210.602 123.965 206.6 123.434C201.345 122.738 196.022 119.245 193.314 114.717C190.012 109.196 189.203 104.417 190.608 98.7276C193.332 87.698 201.583 82.0809 214.007 82.7992C225.783 83.4807 236.68 91.6455 242.761 104.344C244.466 107.903 246.231 112.441 246.684 114.426C247.215 116.758 248.048 118.39 249.037 119.037C251.602 120.717 255.694 128.151 257.12 133.723C260.189 145.716 260.222 161.848 257.205 175.662C247.934 218.094 216.99 251.01 176.883 261.099C170.915 262.601 167.65 262.943 156.267 263.258C147.16 263.509 140.83 263.347 136.887 262.762C131.832 262.01 130.892 262.032 129.997 262.927C129.08 263.844 129.206 264.136 131.099 265.483C137.727 270.199 152.073 275.234 164.224 277.109C174.463 278.689 190.507 278.057 199.534 275.717C218.096 270.906 236.566 259.853 250.662 245.121C264.879 230.262 275.179 209.792 282.552 181.742C286.398 167.112 287.306 160.32 287.338 145.932C287.369 131.979 286.694 126.285 283.57 114.167C278.737 95.4185 267.279 73.6345 263.093 75.2387C261.696 75.7748 261.676 75.5516 264.134 86.479C266.846 98.5308 266.051 114.931 262.3 124.296C261.558 126.15 260.718 127.157 259.912 127.157C258.064 127.157 257.735 125.457 258.586 120.313C259.741 113.329 259.558 100.543 258.212 94.2384C254.283 75.8367 246.528 60.9297 233.839 47.3919C229.686 42.9618 227.504 40.0163 226.762 37.8399C225.566 34.3353 223.926 32.8466 214.521 26.7344C202.396 18.8554 187.355 12.6466 173.046 9.61416C166.479 8.22207 146.996 7.23328 140.911 7.98287ZM154.368 21.1C152.343 22.5164 151.797 25.2255 153.049 27.6432C154.789 31.0073 158.408 31.5115 161.339 28.7982C163.66 26.6489 163.71 24.0156 161.472 21.78C159.526 19.8351 156.578 19.5528 154.368 21.1ZM170.279 34.119C168.432 35.9645 170.07 40.2381 172.625 40.2381C173.673 40.2381 176.403 37.8378 176.403 36.9164C176.403 36.6188 175.915 35.6801 175.319 34.8304C174.141 33.149 171.607 32.7916 170.279 34.119ZM89.76 45.9129C84.6074 48.7444 84.6387 55.1812 89.8157 57.3424C96.1994 60.007 102.269 51.6308 97.4465 46.8127C95.5932 44.9603 92.2131 44.5646 89.76 45.9129ZM182.818 47.6527C179.372 49.3493 177.556 52.3762 177.279 56.8814C176.474 69.9846 192.597 74.3013 198.643 62.6006C199.823 60.3185 199.69 55.3801 198.375 52.6105C195.905 47.4121 188.256 44.9742 182.818 47.6527ZM137.667 52.0139C133.799 54.3705 133.777 58.9626 137.617 62.1918C139.356 63.6534 140.269 63.9406 142.19 63.6291C148.036 62.6813 149.732 57.2576 145.504 53.0326C142.8 50.3312 140.845 50.0774 137.667 52.0139ZM182.983 53.7662C180.818 55.9281 180.666 59.7956 182.666 61.794C184.718 63.8439 189.191 63.6819 191.396 61.4776C193.657 59.2198 193.701 55.6423 191.495 53.5708C189.222 51.4375 185.221 51.5293 182.983 53.7662ZM97.6852 69.0605C92.0774 72.2118 94.6022 80.953 101.067 80.7702C104.27 80.6798 107.506 77.4471 107.506 74.3382C107.506 69.8608 101.758 66.7721 97.6852 69.0605ZM113.913 98.2861C109.661 101.86 109.298 107.285 113.058 111.042C117.639 115.619 124.911 113.639 127.026 107.237C129.496 99.7581 119.93 93.2274 113.913 98.2861ZM199.194 97.3126C196 99.172 194.962 104.932 197.289 107.887C201.415 113.129 211.028 108.27 209.395 101.769C208.408 97.8404 202.627 95.3148 199.194 97.3126ZM178.839 97.7569C174.838 98.7311 173.558 103.994 176.621 106.871C178.971 109.076 182.836 108.923 184.703 106.55C186.448 104.334 186.5 103.285 184.987 100.727C184.063 99.1636 181.049 96.9503 180.372 97.3376C180.294 97.3821 179.604 97.5706 178.839 97.7569ZM105.693 130.078C101.061 135.111 96.3539 142.204 94.8973 146.345C93.2055 151.155 93.3538 154.623 95.2515 154.623C95.9753 154.623 96.7882 154.154 97.0582 153.58C102.234 142.583 105.521 137.971 109.75 135.774C113.293 133.933 113.595 127.713 110.161 127.296C108.882 127.141 107.741 127.852 105.693 130.078ZM245.976 134.561C244.83 140.626 241.194 147.763 236.804 152.563C233.275 156.421 233.27 156.433 234.092 159.177C234.545 160.688 235.174 161.925 235.489 161.925C236.471 161.925 242.173 155.454 244.127 152.124C246.426 148.203 248.492 142.305 249.488 136.818C250.353 132.052 249.932 129.938 248.115 129.938C247.105 129.938 246.672 130.874 245.976 134.561ZM87.437 148.23C86.1607 149.766 83.3937 157.707 82.102 163.543C80.397 171.246 80.9377 188.528 83.1174 195.997C88.6604 214.99 102.316 232.072 118.348 240.066C125.675 243.72 142.572 248.228 144.492 247.042C145.497 246.422 145.151 244.248 143.868 243.128C143.198 242.544 141.398 241.667 139.867 241.179C134.587 239.495 126.11 235.68 121.28 232.812C99.132 219.666 84.8085 191.86 86.1962 164.706C86.4209 160.308 87.0869 154.708 87.6757 152.263C88.7968 147.609 88.7412 146.66 87.437 148.23ZM60.4998 153.201C58.4273 155.272 58.3466 156.613 60.1831 158.448C61.8555 160.119 63.5138 160.213 65.5954 158.756C68.5266 156.705 66.7562 151.494 63.1283 151.494C62.6217 151.494 61.4393 152.263 60.4998 153.201ZM31.9981 153.688C28.4454 155.63 27.801 159.532 30.575 162.304C34.1701 165.896 40.6972 163.13 40.6972 158.014C40.6972 156.367 36.8174 152.882 35.0094 152.906C34.1186 152.918 32.7637 153.27 31.9981 153.688ZM102.794 172.125C101.575 172.615 99.8509 176.111 99.8509 178.092C99.8509 181.681 104.24 182.635 107.189 179.687C110.897 175.983 107.545 170.215 102.794 172.125ZM51.4841 173.158C46.5256 175.868 47.7984 182.785 53.2552 182.785C57.9346 182.785 60.4921 176.975 57.1809 173.867C55.4154 172.21 53.6261 171.987 51.4841 173.158ZM69.233 191.999C69.2371 196.525 71.1551 207.337 72.8121 212.174C77.3969 225.561 88.7996 240.6 99.5106 247.387C105.584 251.235 104.776 248.743 97.6831 241.749C82.3623 226.642 75.449 213.438 70.9067 190.608C70.3757 187.937 69.2302 188.889 69.233 191.999ZM250.735 222.246C247.937 225.976 241.94 232.727 237.408 237.25C232.876 241.773 229.349 245.654 229.569 245.874C230.153 246.457 237.361 241.515 241.315 237.82C243.191 236.066 246.267 232.697 248.149 230.334C251.426 226.22 257.13 217.115 257.13 215.999C257.13 214.381 255.284 216.184 250.735 222.246Z" fill="#FFF8EA"/>
    </g>
    <defs>
        <filter id="filter0_d_38_15" x="0" y="0" width="308" height="309" filterUnits="userSpaceOnUse" color-interpolation-filters="sRGB">
            <feFlood flood-opacity="0" result="BackgroundImageFix"/>
            <feColorMatrix in="SourceAlpha" type="matrix" values="0 0 0 0 0 0 0 0 0 0 0 0 0 0 0 0 0 0 127 0" result="hardAlpha"/>
            <feOffset dy="4"/>
            <feGaussianBlur stdDeviation="2"/>
            <feComposite in2="hardAlpha" operator="out"/>
            <feColorMatrix type="matrix" values="0 0 0 0 1 0 0 0 0 1 0 0 0 0 1 0 0 0 0.25 0"/>
            <feBlend mode="normal" in2="BackgroundImageFix" result="effect1_dropShadow_38_15"/>
            <feBlend mode="normal" in="SourceGraphic" in2="effect1_dropShadow_38_15" result="shape"/>
        </filter>
    </defs>
</svg>
