<svg width="69" height="68" viewBox="0 0 69 68" fill="none" xmlns="http://www.w3.org/2000/svg">
    <path d="M29.8173 3.50926C31.438 -0.820217 37.562 -0.820219 39.1827 3.50926L45.443 20.233C45.9545 21.5996 47.0376 22.6746 48.408 23.1758L65.1624 29.3043C69.539 30.9051 69.539 37.0949 65.1624 38.6957L48.408 44.8242C47.0376 45.3254 45.9545 46.4004 45.443 47.767L39.1827 64.4907C37.562 68.8202 31.438 68.8202 29.8173 64.4907L23.557 47.767C23.0455 46.4004 21.9624 45.3254 20.592 44.8242L3.83756 38.6957C-0.538968 37.0949 -0.538965 30.9051 3.83756 29.3043L20.592 23.1758C21.9624 22.6746 23.0455 21.5996 23.557 20.233L29.8173 3.50926Z" fill="#FFF8EA"/>
</svg>
