<svg width="706" height="706" viewBox="0 0 706 706" fill="none" xmlns="http://www.w3.org/2000/svg">
    <path fill-rule="evenodd" clip-rule="evenodd" d="M369.892 2.29174C368.944 2.67507 368.168 3.94918 368.168 5.12401C368.168 6.29884 366.87 8.3865 365.283 9.76265C363.698 11.1374 362.803 12.9176 363.296 13.716C363.79 14.5144 363.589 15.168 362.848 15.168C362.109 15.168 361.26 14.4371 360.962 13.545C359.917 10.408 356.894 14.0124 357.741 17.3866C358.433 20.1458 358.052 20.6836 355.402 20.6836C353.659 20.6836 350.856 21.6502 349.171 22.8305C347.453 24.033 346.106 24.3363 346.106 23.52C346.106 22.7189 345.182 22.0625 344.054 22.0625C342.748 22.0625 342.12 20.9346 342.33 18.96C342.61 16.3152 342.082 15.9181 338.756 16.2711C335.91 16.5744 334.673 15.9994 334.189 14.1476C333.7 12.2778 332.096 11.5539 328.085 11.3939C323.096 11.194 322.763 11.3994 324.082 13.8621C324.872 15.339 326.583 16.5662 327.883 16.591C330.043 16.631 330.029 16.8006 327.721 18.549C325.292 20.3913 325.305 20.5236 328.065 22.0018C331.478 23.8275 331.757 26.5605 328.782 29.0287C326.885 30.6034 327.09 31.0061 330.506 32.4084C333.511 33.6412 334.385 34.9084 334.385 38.0275C334.385 41.3837 334.903 42.0015 337.487 41.7285C341.111 41.3451 341.388 42.5641 338.522 46.2747C336.503 48.8877 336.405 48.8891 334.451 46.3657C333.3 44.8779 331.543 44.1264 330.316 44.598C329.142 45.0475 326.786 44.8544 325.079 44.1691C323.372 43.4824 322.517 42.8812 323.177 42.833C323.839 42.7861 323.62 41.8277 322.688 40.7067C321.462 39.2285 320.303 39.0368 318.482 40.0117C315.272 41.7298 311.579 40.3551 312.557 37.8055C313.012 36.6196 312.437 35.8516 311.091 35.8516C309.872 35.8516 308.875 35.2972 308.875 34.6202C308.875 32.4981 304.327 31.5342 303.084 33.3916C302.205 34.7015 300.654 33.7584 297.113 29.7609C292.108 24.1116 289.467 23.9185 291.957 29.3845C293.645 33.0882 291.942 37.2305 288.731 37.2305C287.586 37.2305 287.048 37.8758 287.536 38.6659C288.025 39.4546 289.768 39.7704 291.41 39.3678C293.052 38.9651 293.656 38.9789 292.75 39.4009C290.439 40.4764 292.124 44.1167 294.511 43.2011C296.876 42.2938 297.083 44.3346 294.852 46.5657C293.622 47.7956 294.03 48.4934 296.575 49.511C299.614 50.7258 299.438 50.8527 294.612 50.9327C290.494 51.0002 289.15 51.6414 288.583 53.8077C287.96 56.1918 287.135 56.4621 282.901 55.6678L277.948 54.7384L280.312 58.3457C281.613 60.3299 282.676 62.6409 282.676 63.4793C282.676 67.503 288.891 70.1367 291.13 67.0617C291.608 66.404 293.16 66.5405 294.577 67.3637C297.014 68.7798 297.018 68.864 294.66 68.9039C293.22 68.9274 292.557 69.5796 293.092 70.4442C293.601 71.2688 295.191 71.6369 296.622 71.2619C298.055 70.8882 298.879 71.1447 298.453 71.8314C298.029 72.5194 298.959 73.082 300.52 73.082C303.881 73.082 304.188 75.2083 301.25 78.1454C299.77 79.6263 298.022 79.9462 295.389 79.2209C293.327 78.6514 290.708 78.0695 289.57 77.9275C285.017 77.358 281.297 75.4165 281.297 73.6102C281.297 72.5622 280.434 71.7031 279.379 71.7031C278.324 71.7031 274.816 70.5186 271.581 69.0708C265.903 66.5281 261.992 66.5377 261.992 69.0928C261.992 69.7699 262.923 70.3242 264.061 70.3242C266.559 70.3242 266.829 73.948 264.405 74.927C263.09 75.4579 263.113 75.6482 264.503 75.7309C265.885 75.8136 265.801 76.3652 264.159 78.0061C261.01 81.1555 261.494 82.7344 265.608 82.7344C268.519 82.7344 268.917 83.1039 267.653 84.6276C266.788 85.6701 266.468 87.5316 266.943 88.7643C267.56 90.3749 267.025 91.0078 265.045 91.0078C263.528 91.0078 261.93 90.077 261.493 88.9395C260.389 86.0589 257.5 86.3581 253.118 89.8068C250.376 91.962 248.978 92.3343 247.85 91.2064C245.778 89.1339 245.52 84.1133 247.486 84.1133C248.355 84.1133 250.849 82.2518 253.029 79.9766C256.231 76.6341 256.53 75.8398 254.585 75.8398C253.261 75.8398 252.574 75.1987 253.058 74.4141C253.611 73.5191 252.616 73.2282 250.382 73.6336C247.912 74.0817 246.824 73.6736 246.824 72.3016C246.824 71.2136 247.483 70.3242 248.29 70.3242C249.095 70.3242 249.561 69.1783 249.324 67.7788C249.087 66.3778 249.745 64.206 250.786 62.9526C252.431 60.9697 252.34 60.6691 250.095 60.6512C247.919 60.6333 247.838 60.4168 249.582 59.2723C250.88 58.4201 251.136 57.528 250.272 56.8799C249.513 56.3104 248.893 54.9149 248.893 53.7773C248.893 52.6397 247.474 51.5077 245.738 51.2622C242.973 50.8692 242.693 51.2526 243.475 54.3648C244.214 57.3129 243.887 57.9141 241.539 57.9141C238.056 57.9141 236.334 60.3851 238.385 62.4369C239.5 63.551 238.78 64.4377 235.714 65.7269C233.406 66.6977 231.623 68.2834 231.75 69.2528C232.293 73.3619 231.436 74.4609 227.688 74.4609C223.79 74.4609 219.84 71.568 221.49 69.9202C221.952 69.4583 220.705 68.6723 218.719 68.1731C216.35 67.5788 215.109 66.3323 215.109 64.5438C215.109 62.9719 214.381 62.0687 213.386 62.4093C212.438 62.732 211.777 64.4901 211.917 66.3157C212.058 68.1414 211.868 68.602 211.494 67.3389C210.507 63.9964 206.675 62.9995 204.227 65.447C202.321 67.3541 202.381 67.5774 204.817 67.6753C206.306 67.7346 206.751 68.0973 205.802 68.4792C203.091 69.5741 203.746 70.9116 208.309 73.6074C212.288 75.9584 212.404 76.2549 210.263 78.6211C208.132 80.9749 208.179 81.2396 210.996 82.7468C213.153 83.9009 213.828 85.2812 213.382 87.6185C212.878 90.2563 213.551 91.1567 216.903 92.3247C220.946 93.7339 220.988 93.8373 218.555 96.5262C215.563 99.8314 213.731 100.062 213.731 97.1315C213.731 95.8409 213.085 95.3803 212.117 95.9788C211.007 96.6655 210.802 96.1994 211.459 94.4868C212.185 92.5977 211.992 92.3316 210.66 93.3823C209.694 94.1448 207.974 94.7736 206.836 94.7805C205.698 94.7888 203.837 95.0273 202.699 95.3141C201.38 95.6451 200.627 94.8356 200.619 93.0762C200.607 90.9623 199.642 90.2922 196.482 90.2053C188.775 89.9916 188.401 89.8344 190.275 87.5771C191.658 85.91 191.543 85.3571 189.662 84.6359C188.388 84.1478 186.643 84.4497 185.784 85.3088C183.721 87.3716 182.016 87.293 182.016 85.135C182.016 84.1795 180.775 82.6227 179.258 81.6754C177.741 80.7281 176.5 79.0996 176.5 78.0571C176.5 77.0147 175.234 75.8302 173.686 75.4262C170.851 74.6843 170.808 75.5103 173.334 82.2435C173.66 83.1122 172.179 84.4318 170.043 85.1764L166.158 86.5305L169.987 87.5495C172.878 88.3176 173.461 88.996 172.365 90.3156C171.31 91.5883 171.513 92.2943 173.112 92.9079C174.545 93.4581 175.018 94.6771 174.469 96.4048C173.866 98.3064 174.426 99.313 176.442 99.9528C177.991 100.444 179.258 101.464 179.258 102.218C179.258 103.083 174.921 103.299 167.537 102.803C157.379 102.12 155.816 102.311 155.816 104.225C155.816 105.439 157.051 106.756 158.559 107.151C160.068 107.545 160.958 108.423 160.538 109.103C158.945 111.679 161.533 116.097 164.222 115.394C166.118 114.897 166.848 115.43 166.848 117.31C166.848 118.936 168.141 120.236 170.295 120.777C172.191 121.253 173.742 122.237 173.742 122.965C173.742 123.692 174.931 123.91 176.384 123.449C177.838 122.987 179.425 123.256 179.913 124.045C180.401 124.835 179.927 125.48 178.861 125.48C177.795 125.48 175.491 126.721 173.742 128.238C171.994 129.755 170.037 130.996 169.395 130.996C168.752 130.996 168.227 131.908 168.227 133.022C168.227 134.361 167.432 134.741 165.884 134.147C164.418 133.584 164.159 133.041 165.194 132.696C167.552 131.91 167.243 129.617 164.779 129.617C163.642 129.617 162.711 130.17 162.711 130.847C162.711 131.523 160.145 131.826 157.011 131.521C153.875 131.215 150.537 131.607 149.593 132.39C148.412 133.371 146.656 133.348 143.947 132.318C141.189 131.269 139.871 131.261 139.529 132.287C139.261 133.091 137.386 133.437 135.363 133.053C133.34 132.671 132.462 132.724 133.409 133.171C136.374 134.569 135.311 136.239 130.428 137.851C127.841 138.704 125.344 140.392 124.881 141.601C123.731 144.599 124.518 145.068 128.391 143.694C132.652 142.183 136.512 143.078 136.512 145.575C136.512 146.658 137.597 147.553 138.925 147.564C140.559 147.579 140.804 147.924 139.687 148.635C138.673 149.279 138.491 150.419 139.214 151.591C140.188 153.165 141.124 153.196 144.574 151.767C149.122 149.883 151.68 150.659 151.68 153.922C151.68 155.423 152.506 155.741 154.646 155.061C157.051 154.298 157.442 154.563 156.714 156.459C156.22 157.747 155.816 159.381 155.816 160.092C155.816 160.803 154.257 160.993 152.351 160.514C150.269 159.992 147.988 160.39 146.637 161.511C145.4 162.539 142.6 163.45 140.415 163.538C134.643 163.771 134.292 164.963 139.239 167.522C142.732 169.327 143.284 170.161 142.007 171.699C141.128 172.756 140.746 174.163 141.156 174.826C141.95 176.113 152.626 175.882 157.035 174.483C158.959 173.872 160.49 174.76 162.58 177.696C164.169 179.927 165.469 182.051 165.469 182.417C165.469 182.782 162.677 183.501 159.264 184.012C155.851 184.524 153.049 185.679 153.038 186.581C153.021 187.821 152.757 187.813 151.954 186.549C151.369 185.63 149.56 185.226 147.933 185.65C143.766 186.741 145.852 192.357 150.424 192.357C153.085 192.357 153.73 193.159 154.034 196.839C154.238 199.303 153.791 201.32 153.042 201.32C152.293 201.32 151.68 202.519 151.68 203.982C151.68 205.691 150.57 206.803 148.577 207.09C146.287 207.418 145.56 208.346 145.803 210.632C146.008 212.563 145.382 213.73 144.144 213.73C141.007 213.73 135.137 210.682 135.09 209.027C135.032 207.022 128.293 202.185 127.15 203.328C126.655 203.823 127.059 204.729 128.049 205.341C129.359 206.149 128.972 206.699 126.632 207.357C123.852 208.136 123.695 208.492 125.481 209.961C126.691 210.956 127.549 213.95 127.549 217.178C127.549 221.115 128.42 223.482 130.594 225.451C132.269 226.968 133.82 229.14 134.041 230.277C134.263 231.415 135.581 233.194 136.972 234.229C138.848 235.625 139.1 236.514 137.95 237.664C136.799 238.816 136.099 238.736 135.247 237.358C134.446 236.06 133.813 235.96 133.156 237.024C131.69 239.396 128.238 238.821 128.238 236.207C128.238 234.384 127.87 234.231 126.584 235.517C124.332 237.769 122.723 237.597 122.723 235.104C122.723 233.934 121.489 233.035 119.884 233.035C118.223 233.035 117.422 232.424 117.953 231.564C118.454 230.754 118.025 230.208 117 230.349C112.697 230.939 110.313 230.144 110.313 228.117C110.313 226.581 109.513 226.208 107.548 226.833C105.711 227.415 104.505 226.985 103.953 225.546C103.497 224.356 102.326 223.383 101.351 223.383C100.378 223.383 99.2082 221.9 98.7532 220.087C98.2981 218.275 96.9634 216.423 95.7858 215.971C94.0097 215.29 93.7547 216.101 94.2869 220.73C94.833 225.494 94.4896 226.483 91.9331 227.486C89.0884 228.606 89.1546 228.743 93.2707 230.243C96.5718 231.445 97.435 232.457 96.9013 234.497C96.4132 236.362 96.9041 237.172 98.5243 237.172C100.219 237.172 100.609 237.916 99.9708 239.93C99.2813 242.104 99.7226 242.688 102.061 242.688C103.832 242.688 104.787 243.382 104.433 244.411C103.793 246.267 102.173 246.296 87.9053 244.705C79.9187 243.815 78.5977 243.975 78.5977 245.837C78.5977 248.284 82.1911 252.34 84.3588 252.34C85.1448 252.34 85.4481 253.225 85.0317 254.308C84.0154 256.958 87.3248 259.503 90.3032 258.36C92.2682 257.606 92.5343 257.977 91.7635 260.405C91.245 262.036 91.3292 263.411 91.9497 263.459C98.4167 263.964 102.308 264.56 102.88 265.132C103.259 265.511 101.981 267.537 100.04 269.633C97.6128 272.25 95.2163 273.405 92.3785 273.325C90.1075 273.261 88.2501 273.854 88.2501 274.642C88.2501 275.431 89.1808 275.719 90.3184 275.282C91.5787 274.799 92.3868 275.281 92.3868 276.513C92.3868 278.964 91.7194 279.022 87.8143 276.911C83.1881 274.409 77.5966 274.222 75.3242 276.493C73.8681 277.95 72.3485 278.198 70.0761 277.348C68.3166 276.69 65.636 276.646 64.1192 277.248C62.6024 277.852 62.1377 278.389 63.085 278.443C66.0924 278.611 64.9465 280.716 61.1146 282.065C57.5956 283.303 57.5349 283.48 59.8336 285.778C61.1614 287.105 61.6192 288.191 60.8512 288.191C60.0845 288.191 59.071 287.57 58.6008 286.808C58.0327 285.889 56.851 285.905 55.0722 286.857C51.8993 288.555 51.545 290.949 54.4669 290.949C55.6045 290.949 56.5352 290.307 56.5352 289.522C56.5352 288.538 57.3639 288.538 59.202 289.522C60.6692 290.307 63.1512 290.949 64.7176 290.949C66.9639 290.949 67.5665 291.825 67.5665 295.086C67.5665 297.844 66.877 299.223 65.4981 299.223C62.7954 299.223 62.8506 302.583 65.596 305.33C68.0463 307.78 73.0821 308.254 73.0821 306.036C73.0821 305.233 72.5181 304.924 71.8273 305.351C69.952 306.51 66.1876 304.701 66.1876 302.641C66.1876 301.648 69.075 299.224 72.6036 297.252C78.5219 293.944 79.2665 293.828 82.2077 295.755C83.9603 296.903 86.7953 297.844 88.5079 297.844H91.6201L88.5713 300.893C86.1845 303.279 85.1599 303.579 83.8527 302.271C81.4934 299.912 80.4068 300.188 79.5767 303.359C79.181 304.876 77.8669 306.117 76.659 306.117C75.4221 306.117 74.461 307.259 74.461 308.727C74.461 310.163 73.3744 311.758 72.0479 312.273C69.7755 313.154 69.7837 313.318 72.1817 315.084C73.5826 316.116 75.7544 316.586 77.0078 316.131C78.9093 315.439 78.8501 315.798 76.6521 318.303C73.5054 321.886 74.7892 324.026 78.2447 320.954C79.5767 319.77 82.9923 318.169 85.837 317.397C90.5046 316.128 91.0079 316.249 91.0079 318.639C91.0079 321.693 92.4392 322.023 95.0233 319.562C96.5042 318.152 96.6462 318.467 95.8065 321.285C95.2425 323.181 94.2414 324.939 93.5837 325.192C92.9259 325.445 92.3868 326.477 92.3868 327.485C92.3868 328.691 95.3349 329.713 101.005 330.473C107.102 331.289 109.623 332.214 109.623 333.635C109.623 335.881 98.9352 339.521 95.834 338.331C92.7398 337.144 90.5832 339.106 92.4764 341.387C93.3575 342.449 94.6289 342.977 95.3004 342.562C95.9733 342.147 96.5235 343.068 96.5235 344.611C96.5235 346.97 97.1592 347.289 100.52 346.616C104.114 345.897 104.608 346.246 105.455 350.097C106.555 355.11 107.609 355.439 110.046 351.534C111.161 349.75 112.956 348.849 114.86 349.121C116.578 349.365 118.834 348.425 120.057 346.956C121.891 344.753 122.694 344.613 125.359 346.041C128.055 347.483 128.885 347.309 131.21 344.815C132.699 343.215 134.454 342.239 135.111 342.644C135.767 343.05 136.588 342.287 136.936 340.951C137.536 338.655 137.579 338.655 137.731 340.935C137.819 342.262 138.511 343.348 139.27 343.348C140.028 343.348 140.648 344.04 140.648 344.888C140.648 345.748 139.432 346.11 137.891 345.706C136.374 345.31 135.133 345.547 135.133 346.235C135.133 346.922 134.126 347.484 132.896 347.484C131.181 347.484 131.017 347.916 132.194 349.335C134.016 351.53 132.891 353 129.387 353C127.997 353 126.933 353.465 127.022 354.034C127.462 356.82 126.477 358.095 122.033 360.487C117.578 362.887 115.208 368.168 118.586 368.168C119.344 368.168 119.965 367.547 119.965 366.789C119.965 366.031 121.516 365.41 123.412 365.41C125.308 365.41 126.859 366.031 126.859 366.789C126.859 368.787 132.03 368.485 132.769 366.444C133.269 365.065 133.977 365.065 136.313 366.444C140.076 368.667 139.541 368.815 144.942 364.053C149.486 360.049 152.667 358.561 151.033 361.204C150.094 362.724 155.025 365.742 156.325 364.442C156.804 363.964 157.195 364.372 157.195 365.349C157.195 366.749 157.621 366.773 159.203 365.46C160.308 364.544 161.953 364.252 162.86 364.813C163.804 365.396 165.302 364.747 166.368 363.289C167.39 361.89 168.227 361.486 168.227 362.389C168.227 363.292 168.693 363.958 169.261 363.868C173.096 363.262 173.919 364.227 173.027 368.284C172.14 372.325 172.289 372.514 176.02 372.076C179.324 371.688 179.947 372.114 179.947 374.76C179.947 378.791 182.964 380.673 186.98 379.147C189.098 378.342 190.311 378.492 190.744 379.613C191.152 380.673 192.181 380.186 193.608 378.255C194.833 376.599 197.534 375.047 199.612 374.807C201.733 374.563 203.237 373.617 203.044 372.649C202.854 371.702 203.63 370.926 204.768 370.926C208.586 370.926 206.886 368.612 199.857 364.242C193.354 360.199 191.94 357.137 196.576 357.137C199.797 357.137 198.851 353.506 194.968 350.962C192.577 349.396 191.833 348.146 192.749 347.231C194.47 345.51 246.598 362.829 253.963 367.568C262.265 372.911 277.062 387.488 284.787 397.933C288.762 403.308 302.846 418.573 316.087 431.854C337.807 453.645 340.327 456.665 341.885 462.761C342.835 466.477 344.13 484.099 344.762 501.922C345.983 536.298 346.085 535.158 338.768 569.488C337.512 575.378 337.082 583.439 337.514 592.999C338.098 605.963 337.844 608.183 335.186 613.395C328.256 626.98 308.927 640.53 274.089 656.226C261.084 662.086 250.178 667.671 249.857 668.636C249.395 670.022 252.283 670.194 263.56 669.456C280.832 668.325 299.872 664.688 321.755 658.339C330.736 655.733 340.227 653.602 342.847 653.602C349.52 653.602 353.717 658.251 355.71 667.848C357.036 674.24 358.303 676.447 362.896 680.38C371.457 687.706 379.147 692.724 380.2 691.669C380.724 691.146 379.227 687.175 376.874 682.847C374.521 678.517 372.171 672.959 371.651 670.493L370.707 666.012H378.04C382.073 666.012 399.653 666.941 417.104 668.079C463.344 671.09 490.135 672.559 490.68 672.112C491.446 671.483 480.993 666.434 469.371 661.817C454.279 655.822 427.06 642.012 416.357 634.919C403.079 626.12 393.561 616.046 390.87 607.946C388.987 602.279 388.769 597.69 389.548 580.153C390.264 564.066 389.97 555.794 388.297 544.836C387.096 536.965 385.407 521.843 384.543 511.231C382.233 482.871 384.827 474.206 403.181 448.962C408.746 441.308 415.361 431.322 417.88 426.771C428.936 406.804 434.64 400.225 456.127 382.646C463.424 376.677 466.069 373.662 465.778 371.64C465.127 367.116 458.703 368.659 448.82 375.711C443.953 379.184 439.346 383.096 438.583 384.405C437.302 386.604 437.195 386.587 437.155 384.188C437.101 380.833 444.568 373.839 454.911 367.556C464.243 361.887 507.025 346.089 514.14 345.685C520.525 345.321 520.973 347.824 515.092 350.99C509.237 354.143 507.764 357.12 511.569 358.114C515.726 359.202 514.931 360.912 508.816 364.031C503.266 366.863 501.568 369.547 505.326 369.547C506.61 369.547 507.043 370.348 506.51 371.739C505.839 373.486 506.476 373.837 509.649 373.463C512.104 373.173 513.698 373.655 513.808 374.718C513.907 375.666 514.065 377.129 514.16 377.969C514.263 378.882 515.676 379.161 517.665 378.661C519.726 378.144 521.267 378.482 521.7 379.547C522.189 380.745 523.165 380.377 524.917 378.337C526.3 376.725 529.194 374.994 531.349 374.487C533.929 373.882 535.014 372.913 534.529 371.647C534.124 370.589 534.533 369.424 535.438 369.056C536.661 368.558 536.641 368.358 535.36 368.277C534.413 368.218 533.637 366.821 533.637 365.174C533.637 363.528 532.609 361.046 531.355 359.659C528.212 356.185 531.52 356.399 535.016 359.895C536.532 361.411 537.773 362.963 537.773 363.342C537.773 363.721 537.783 364.496 537.794 365.065C537.807 365.635 538.401 365.174 539.117 364.042C540.152 362.404 540.766 362.335 542.128 363.698C544.438 366.007 547.495 365.853 552.913 363.15C557.135 361.043 557.532 361.049 558.751 363.226C559.826 365.15 560.432 365.253 562.165 363.815C563.89 362.383 564.563 362.466 565.884 364.273C566.895 365.656 569.011 366.311 571.559 366.031C573.793 365.785 576.358 366.196 577.258 366.943C578.159 367.691 579.207 367.797 579.587 367.181C579.968 366.564 583.124 366.287 586.601 366.563C590.077 366.84 592.577 367.625 592.155 368.306C591.733 368.988 592.046 369.547 592.848 369.547C596.365 369.547 593.911 363.929 588.822 360.329C585.805 358.194 583.323 355.405 583.306 354.131C583.29 352.828 581.98 351.62 580.315 351.373C577.06 350.888 573.824 346.827 575.42 345.23C575.975 344.674 577.163 344.955 578.061 345.853C580.47 348.262 581.898 347.843 581.898 344.727C581.898 343.21 582.468 341.969 583.164 341.969C585.994 341.969 588.793 343.757 588.793 345.564C588.793 346.62 590.034 347.484 591.551 347.484C593.068 347.484 594.309 346.864 594.309 346.105C594.309 344.185 598.924 344.378 600.927 346.381C602.124 347.578 603 347.618 604.088 346.53C604.948 345.67 608.058 345.325 611.327 345.725C616.581 346.367 616.84 346.257 614.432 344.404C612.987 343.291 611.699 340.954 611.57 339.21C611.396 336.85 609.841 335.455 605.479 333.749C599.28 331.326 598.961 330.856 601.017 327.181C602.077 325.288 602.697 325.179 604.394 326.588C605.799 327.755 606.763 327.845 607.367 326.868C608.715 324.684 612.234 325.135 612.234 327.49C612.234 330.476 615.822 330.032 618.965 326.659L621.666 323.759L627.982 328.104C634.421 332.534 635.805 332.359 632.184 327.572C630.771 325.702 630.618 324.612 631.68 323.956C633.436 322.87 618.845 311.96 614.013 310.748C612.277 310.312 610.856 309.091 610.856 308.037C610.856 306.98 610.158 306.272 609.304 306.462C608.451 306.651 607.487 306.084 607.16 305.202C606.737 304.054 609.355 303.7 616.323 303.962C625.676 304.314 626.041 304.209 625.178 301.43C624.312 298.644 624.381 298.626 626.983 300.946C628.471 302.274 630.348 303.359 631.156 303.359C631.962 303.359 632.976 304.279 633.408 305.404C634.417 308.035 638.078 306.654 639.163 303.233C640.301 299.649 642.939 299.929 647.98 304.172C656.733 311.536 651.842 303.911 641.116 293.468C635.007 287.523 630.391 282.04 630.855 281.287C631.321 280.534 631.096 279.918 630.356 279.918C629.617 279.918 628.805 280.434 628.551 281.065C628.299 281.695 625.99 281.655 623.423 280.977C620.109 280.1 619.181 279.314 620.228 278.267C621.047 277.448 622.813 277.255 624.207 277.832C627.997 279.401 634.359 279.413 633.838 277.85C633.585 277.091 632.19 276.256 630.735 275.992C626.006 275.136 625.359 273.219 628.627 269.74C630.36 267.895 631.153 266.053 630.411 265.594C629.243 264.873 612.696 272.406 610.856 274.496C610.243 275.192 602.421 275.063 601.548 274.342C601.359 274.186 600.635 273.98 599.939 273.885C596.282 273.386 597.637 271.78 603.069 270.176C606.997 269.016 608.95 267.739 608.517 266.612C608.073 265.456 610.129 264.265 614.519 263.134C618.314 262.158 620.123 261.192 618.711 260.899C616.797 260.502 616.579 259.956 617.765 258.526C618.951 257.097 618.649 256.317 616.461 255.146C613.26 253.433 612.658 250.961 615.442 250.961C617.808 250.961 623.577 244.839 622.358 243.62C621.847 243.107 619.824 242.638 617.865 242.579C615.905 242.519 615.079 242.157 616.026 241.775C616.975 241.391 617.75 239.926 617.75 238.518C617.75 237.108 618.371 235.572 619.129 235.104C621.294 233.766 620.742 231.656 618.227 231.656C616.974 231.656 613.586 234.214 610.7 237.341C607.248 241.08 604.71 242.74 603.283 242.194C601.8 241.624 600.688 242.488 599.761 244.923C598.768 247.534 597.768 248.236 596.013 247.558C594.696 247.048 591.912 246.286 589.827 245.866C585.595 245.012 585.248 243.982 587.759 239.731C589.138 237.395 589.138 236.686 587.759 236.187C585.168 235.25 585.684 233.333 588.793 232.346C592.516 231.164 592.266 229.165 588.16 227.295C585.457 226.063 585.038 225.247 586.092 223.278C586.818 221.918 587.414 219.774 587.414 218.511C587.414 216.696 586.45 217.038 582.803 220.145C580.266 222.305 578.375 224.301 578.6 224.581C578.825 224.861 578.152 225.948 577.105 226.994C574.969 229.13 571.644 229.61 572.883 227.604C573.323 226.892 572.584 225.608 571.241 224.752C569.108 223.391 569.217 223.282 572.1 223.9C574.45 224.403 574.975 224.181 573.923 223.129C572.871 222.077 572.912 220.881 574.069 218.985C575.397 216.807 575.252 215.993 573.28 214.529C569.884 212.007 570.281 209.794 574.315 208.782C578.432 207.747 578.906 205.457 575.004 205.457C572.064 205.457 571.057 202.73 573.97 202.655C574.956 202.63 574.57 201.762 573.069 200.625C570.702 198.834 570.669 198.553 572.725 197.764C576.045 196.489 575.516 194.606 571.557 193.614C569.661 193.138 568.109 192.218 568.109 191.573C568.109 190.926 566.722 189.103 565.025 187.523C562.614 185.277 562.341 184.403 563.774 183.517C565.037 182.737 563.498 181.625 558.829 179.947C549.873 176.726 546.869 174.425 547.948 171.612C548.665 169.743 550.021 169.514 555.712 170.296C561.682 171.118 562.495 170.95 561.764 169.047C560.576 165.954 562.901 166.304 570.048 170.294C573.768 172.372 576.559 173.193 577.072 172.362C577.541 171.605 577.501 170.984 576.985 170.984C576.468 170.984 576.806 170.066 577.738 168.945C579.662 166.627 582.948 167.814 588.636 172.88L591.924 175.811L590.133 172.363C587.013 166.364 572.402 152.169 566.7 149.598C561.142 147.092 559.505 144.785 563.283 144.785C564.421 144.785 565.353 145.251 565.354 145.819C565.356 146.387 567.528 147.008 570.181 147.197C575.793 147.598 576.533 145.422 571.557 143.155C567.38 141.252 567.239 140.035 570.898 137.473C573.231 135.839 573.373 135.261 571.77 133.93C570.296 132.709 569.454 132.823 568.123 134.427C567.172 135.573 565.625 136.512 564.686 136.512C563.747 136.512 560.618 138.114 557.733 140.072C553.125 143.199 552.339 143.365 551.262 141.441C550.275 139.678 549.468 139.555 547.117 140.814C544.82 142.043 543.879 141.953 542.709 140.393C541.891 139.301 540.096 137.987 538.721 137.47C536.112 136.491 536.728 133.788 539.578 133.707C540.482 133.681 543.703 132.462 546.736 130.996C549.77 129.53 553.183 128.263 554.32 128.18C555.458 128.096 554.465 127.301 552.115 126.41C549.764 125.519 546.774 123.706 545.466 122.378C542.601 119.467 540.705 119.399 537.156 122.083C535.679 123.201 533.307 123.744 531.884 123.294C530.257 122.776 528.623 123.394 527.48 124.959C526.096 126.851 525.214 127.077 523.789 125.905C522.759 125.059 520.402 124.151 518.552 123.889C515.446 123.449 515.606 123.198 520.62 120.654C523.608 119.137 526.363 117.501 526.742 117.017C527.121 116.534 529.914 115.055 532.947 113.731C538.293 111.398 538.357 111.293 535.016 110.318C532.113 109.473 531.939 109.154 533.915 108.312C535.206 107.762 537.067 107.73 538.052 108.241C539.037 108.754 538.291 107.893 536.395 106.326C533.575 103.998 533.387 103.473 535.36 103.448C536.687 103.432 537.773 102.828 537.773 102.108C537.773 101.387 536.687 100.187 535.36 99.4426C533.067 98.1547 533.067 98.0416 535.352 97.1605C536.676 96.6517 537.415 95.6795 536.994 94.9997C536.575 94.3213 537.665 93.7325 539.416 93.6939L542.6 93.6208L539.497 91.4573C536.083 89.076 535.435 86.0782 538.118 85.0826C539.381 84.6152 539.197 83.7672 537.429 81.9153C536.102 80.524 535.016 80.0427 535.016 80.8453C535.016 83.843 528.644 89.6289 525.319 89.6496C522.617 89.6661 522.341 89.946 523.984 91.0078C525.58 92.0392 525.625 92.3495 524.182 92.366C523.092 92.3784 522.64 93.2472 523.101 94.4468C523.695 95.9926 522.484 96.7303 518.24 97.4101C514.378 98.0264 512.375 99.1213 511.92 100.866C511.046 104.207 505.799 104.183 502.76 100.824C500.597 98.4332 500.587 98.0554 502.644 95.9981C503.872 94.7695 504.367 93.756 503.743 93.7449C503.122 93.7325 503.542 93.112 504.68 92.366C506.443 91.2077 506.463 90.823 504.802 89.7558C503.734 89.0663 501.872 88.9946 500.666 89.5944C493.458 93.1851 490.802 94.1379 490.065 93.4002C488.807 92.1426 490.79 89.6289 493.04 89.6289C494.134 89.6289 495.027 89.0084 495.027 88.25C495.027 87.4916 495.995 86.8711 497.177 86.8711C498.359 86.8711 499.001 86.3457 498.606 85.7032C498.209 85.0606 499.709 82.7868 501.94 80.6481C504.965 77.751 505.791 75.9433 505.189 73.5426C504.585 71.135 504.96 70.3242 506.681 70.3242C507.945 70.3242 508.581 69.6789 508.093 68.8888C507.604 68.1 506.017 67.8312 504.564 68.2931C503.111 68.7536 501.922 68.5358 501.922 67.8063C501.922 65.396 497.616 64.781 495.507 66.8894C490.847 71.5501 484.561 72.5594 488.308 68.0449C489.149 67.0314 489.526 65.0113 489.145 63.5565C488.658 61.6936 489.326 60.6636 491.395 60.0789C494.017 59.3385 494.099 59.0613 492.148 57.5473C490.944 56.611 490.221 55.0708 490.54 54.1221C490.859 53.1734 490.565 52.3984 489.887 52.3984C489.208 52.3984 488.691 50.2336 488.738 47.5861C488.784 44.9399 488.203 42.6123 487.445 42.4152C486.688 42.218 486.055 42.9874 486.038 44.125C485.98 48.0962 483.795 52.3984 481.835 52.3984C479.406 52.3984 479.211 56.0153 481.583 57.0743C482.532 57.4976 482.066 57.7886 480.549 57.7196C474.433 57.4466 473.974 57.79 474.818 62.0067C475.417 65.003 475.002 66.5019 473.267 67.6023C471.55 68.6902 471.375 69.3066 472.628 69.8319C473.581 70.2332 474.01 71.1267 473.581 71.8203C472.241 73.9907 468.02 73.2075 463.115 69.8802C460.52 68.118 457.554 66.9583 456.526 67.3003C455.4 67.6753 455.039 67.303 455.618 66.3668C456.148 65.5091 455.944 64.8086 455.163 64.8086C454.384 64.8086 454.104 63.8778 454.54 62.7402C454.977 61.6026 454.699 60.6719 453.922 60.6719C453.146 60.6719 452.265 61.4123 451.963 62.3169C451.607 63.3828 449.701 62.6547 446.546 60.2486C443.87 58.2064 441.118 56.5448 440.431 56.5558C439.744 56.5682 440.094 57.1557 441.211 57.8617C442.953 58.962 442.907 59.2723 440.892 60.0459C439.06 60.7491 438.852 61.5254 439.944 63.5676C441.109 65.7421 440.871 66.1875 438.54 66.1875C436.997 66.1875 435.734 66.8894 435.734 67.747C435.734 68.7592 437.429 69.0308 440.563 68.522C444.897 67.8187 445.256 67.9939 444.059 70.2291C442.506 73.1303 443.44 74.4609 447.025 74.4609C448.431 74.4609 450.28 75.9929 451.134 77.8655C451.986 79.7366 453.089 81.019 453.583 80.7143C454.077 80.4082 455.365 80.7046 456.444 81.372C459.515 83.2694 456.779 84.7545 453.313 83.0695C449.879 81.401 444.104 80.0165 437.803 79.3519C435.528 79.1106 431.028 77.9399 427.806 76.7485C424.583 75.5572 421.945 74.8967 421.945 75.28C421.945 77.1788 426.242 83.9368 427.777 84.4539C428.741 84.7779 426.565 84.8786 422.942 84.6773C412.256 84.0816 394.821 77.2188 403.996 77.2188C405.589 77.2188 408.242 75.9612 409.891 74.4251C411.542 72.8876 414.152 71.8024 415.695 72.012C419.938 72.5884 420.354 66.7473 416.165 65.4001C412.984 64.377 412.984 64.3756 416.733 63.1125L420.485 61.8481L417.679 58.8476C415.037 56.0222 415.019 55.8154 417.374 55.341C421.13 54.584 422.074 52.0675 419.616 49.3538C417.598 47.1214 417.673 46.8442 420.597 45.7631L423.766 44.5911L420.442 42.2207C417.367 40.0283 417.296 39.7194 419.484 38.0799C421.285 36.7299 421.466 35.9233 420.242 34.7002C419.359 33.8163 418.036 33.0937 417.303 33.0937C416.57 33.0937 416.347 33.4702 416.808 33.9307C417.268 34.3927 416.131 36.4017 414.28 38.3984C412.428 40.3951 410.914 42.4331 410.914 42.9267C410.914 43.4218 409.385 44.2105 407.515 44.6793C405.068 45.2929 404.362 46.1685 404.99 47.8081C405.669 49.5744 405.239 49.9205 403.07 49.3538C399.378 48.3886 395.659 50.5686 396.641 53.1237C397.537 55.461 393.665 55.9891 392.264 53.7208C391.776 52.9321 390.333 52.6177 389.057 53.0231C387.161 53.6243 386.71 52.7528 386.592 48.2521C386.491 44.4353 387.027 42.7461 388.339 42.7461C390.77 42.7461 390.737 41.1948 388.237 37.8386C386.445 35.4351 386.552 34.9236 389.271 32.8235C391.561 31.0543 391.911 30.096 390.708 28.8881C389.502 27.6788 387.59 28.4151 382.833 31.9162C379.377 34.4602 376.524 37.3173 376.495 38.2646C376.466 39.2133 375.715 39.9883 374.827 39.9883C373.939 39.9883 372.077 41.0156 370.69 42.2704C369.303 43.5252 368.168 43.8727 368.168 43.0412C368.168 42.2097 368.789 41.1466 369.547 40.6777C370.305 40.2089 370.926 38.6563 370.926 37.2277C370.926 35.7978 372.221 33.7225 373.804 32.6139L376.681 30.5979L373.459 29.5651C370.387 28.5806 370.457 28.4579 374.987 26.9245C379.864 25.2712 379.758 24.9982 372.848 21.4144L369.264 19.5543L372.852 17.2019C377.136 14.3958 377.481 12.4102 373.684 12.4102C370.043 12.4102 370.187 10.5045 374.028 7.82391C376.583 6.04236 376.713 5.648 374.761 5.58733C373.234 5.54182 372.673 4.78066 373.184 3.44726C373.987 1.35684 373.037 1.02315 369.892 2.29174ZM367.479 51.6731L361.963 55.0708L366.137 55.1135C370.402 55.1576 376.441 51.9034 376.441 49.562C376.441 47.3654 373.252 48.1169 367.479 51.6731ZM369.547 67.5664C369.547 68.3248 370.167 68.9453 370.926 68.9453C371.684 68.9453 372.305 68.3248 372.305 67.5664C372.305 66.808 371.684 66.1875 370.926 66.1875C370.167 66.1875 369.547 66.808 369.547 67.5664ZM304.738 74.4609C304.738 75.2193 305.359 75.8398 306.117 75.8398C306.876 75.8398 307.496 75.2193 307.496 74.4609C307.496 73.7025 306.876 73.082 306.117 73.082C305.359 73.082 304.738 73.7025 304.738 74.4609ZM327.413 81.4796C326.855 82.3841 324.629 82.6337 321.816 82.1056C318.169 81.4217 317.148 81.6905 317.148 83.3356C317.148 84.4925 318.737 85.8383 320.678 86.325C322.766 86.849 323.931 87.9315 323.531 88.9739C323.159 89.9433 324.013 91.0395 325.427 91.4091C327.321 91.9041 327.787 92.8997 327.192 95.1762C326.6 97.4404 326.902 98.0981 328.315 97.6279C331.273 96.6434 331.537 92.0985 328.756 90.0646C327.391 89.0663 326.994 88.25 327.872 88.25C328.752 88.25 329.145 87.3992 328.746 86.3595C328.348 85.3198 328.988 84.0981 330.169 83.6445C331.35 83.1922 332.316 82.1814 332.316 81.3982C332.316 79.5105 328.592 79.5712 327.413 81.4796ZM312.322 82.7344C312.791 83.4928 313.758 84.1133 314.472 84.1133C315.186 84.1133 315.77 83.4928 315.77 82.7344C315.77 81.976 314.802 81.3555 313.62 81.3555C312.438 81.3555 311.854 81.976 312.322 82.7344ZM460.555 85.4922C460.555 86.2506 461.212 86.8711 462.015 86.8711C462.818 86.8711 463.092 86.2506 462.623 85.4922C462.154 84.7338 461.498 84.1133 461.163 84.1133C460.828 84.1133 460.555 84.7338 460.555 85.4922ZM301.804 88.6747C302.845 89.9585 304.656 91.0078 305.826 91.0078C307.815 91.0078 306.975 88.9643 304.969 88.9188C304.463 88.9064 303.118 88.3217 301.981 87.6198C300.195 86.5167 300.171 86.6615 301.804 88.6747ZM242.43 91.9496C243.424 92.3481 244.614 92.2985 245.072 91.8407C245.529 91.3829 244.716 91.0574 243.263 91.1167C241.656 91.1829 241.329 91.5097 242.43 91.9496ZM343.171 93.4209C341.457 95.6078 341.505 95.6561 343.692 93.9421C345.02 92.901 346.106 91.8145 346.106 91.529C346.106 90.3942 344.973 91.1236 343.171 93.4209ZM243.72 97.6004C236.101 101.69 236.052 103.072 243.618 100.499C249.61 98.4622 252.34 96.733 252.34 94.9763C252.34 93.2568 251.12 93.6291 243.72 97.6004ZM404.02 95.1445C404.02 95.9029 404.97 96.5234 406.131 96.5234C407.293 96.5234 408.6 97.4542 409.036 98.5918C410.058 101.252 413.672 101.29 413.672 98.6401C413.672 96.4255 409.582 93.7656 406.179 93.7656C404.992 93.7656 404.02 94.3861 404.02 95.1445ZM415.051 97.0653C415.051 97.3632 415.982 97.9644 417.119 98.4015C418.257 98.8372 419.188 98.5932 419.188 97.8596C419.188 97.1246 418.257 96.5234 417.119 96.5234C415.982 96.5234 415.051 96.7675 415.051 97.0653ZM368.857 100.66C366.435 103.337 366.449 103.418 369.333 103.418C370.967 103.418 372.305 104.08 372.305 104.889C372.305 105.757 373.493 105.984 375.199 105.444C377.714 104.645 377.975 104.949 377.196 107.763C376.328 110.896 376.37 110.914 378.438 108.325C381.288 104.761 381.135 103.305 377.82 102.439C376.304 102.042 375.063 100.859 375.063 99.8094C375.063 97.024 371.735 97.4804 368.857 100.66ZM435.734 102.039C435.734 102.797 434.7 103.418 433.436 103.418C432.173 103.418 431.581 103.861 432.122 104.401C433.854 106.133 448.536 106.547 447.479 104.834C446.959 103.993 445.341 103.684 443.885 104.146C442.173 104.689 440.943 104.223 440.406 102.824C439.497 100.455 435.734 99.8218 435.734 102.039ZM307.016 104.058C306.611 105.114 307.135 105.783 308.241 105.62C311.215 105.183 311.975 103.844 309.738 102.986C308.631 102.56 307.405 103.043 307.016 104.058ZM283.365 107.579C280.769 108.575 280.755 108.698 283.113 109.658C284.492 110.22 286.251 110.046 287.025 109.273C288.964 107.334 286.715 106.294 283.365 107.579ZM380.578 107.555C380.578 108.313 381.509 108.934 382.647 108.934C383.784 108.934 384.715 109.554 384.715 110.312C384.715 111.071 385.335 111.691 386.094 111.691C388.319 111.691 387.674 107.927 385.291 107.013C382.136 105.802 380.578 105.981 380.578 107.555ZM474.344 108.934C474.344 109.692 474.964 110.312 475.723 110.312C476.481 110.312 477.102 109.692 477.102 108.934C477.102 108.175 476.481 107.555 475.723 107.555C474.964 107.555 474.344 108.175 474.344 108.934ZM492.257 109.608C493.195 110.737 494.521 111.315 495.207 110.892C496.966 109.804 495.282 107.555 492.709 107.555C490.955 107.555 490.871 107.938 492.257 109.608ZM437.113 109.462C437.113 110.686 442.692 111.326 443.398 110.183C443.823 109.496 442.582 108.934 440.642 108.934C438.702 108.934 437.113 109.172 437.113 109.462ZM228.554 111.225C229.502 111.609 231.054 111.609 232.001 111.225C232.95 110.843 232.173 110.53 230.277 110.53C228.381 110.53 227.606 110.843 228.554 111.225ZM246.824 111.429C246.824 112.17 247.807 113.152 249.008 113.614C250.35 114.128 250.982 113.82 250.645 112.812C249.959 110.751 246.824 109.616 246.824 111.429ZM316.738 118.077C315.361 119.455 318.503 124.279 320.123 123.278C321.084 122.684 320.943 121.975 319.709 121.192C318.219 120.248 318.205 120.003 319.643 119.986C320.636 119.974 321.065 119.344 320.596 118.586C319.624 117.014 318.013 116.802 316.738 118.077ZM354.077 118.038C353.534 118.874 353.957 120.736 355.02 122.175C356.613 124.332 357.269 124.474 358.768 122.986C360.268 121.494 360.184 121.333 358.281 122.057C356.593 122.699 355.856 122.076 355.521 119.725C355.253 117.839 354.658 117.144 354.077 118.038ZM395.979 118.441C394.625 119.28 394.724 119.923 396.429 121.338C397.89 122.55 399.08 122.698 400 121.778C401.851 119.928 398.319 116.996 395.979 118.441ZM403.334 122.717C402.306 124.38 409.12 127.735 410.574 126.282C411.137 125.716 410.396 124.375 408.924 123.299C405.764 120.988 404.484 120.856 403.334 122.717ZM311.633 124.102C311.633 124.86 312.253 125.48 313.012 125.48C313.77 125.48 314.391 124.86 314.391 124.102C314.391 123.343 313.77 122.723 313.012 122.723C312.253 122.723 311.633 123.343 311.633 124.102ZM478.48 123.933C478.48 124.598 479.513 125.995 480.775 127.036C482.854 128.751 482.915 128.638 481.416 125.825C479.706 122.616 478.48 121.826 478.48 123.933ZM232.346 128.238C231.877 128.997 232.151 129.617 232.954 129.617C233.756 129.617 234.414 128.997 234.414 128.238C234.414 127.48 234.141 126.859 233.806 126.859C233.471 126.859 232.815 127.48 232.346 128.238ZM414.553 127.816C413 129.369 413.608 130.996 415.74 130.996C416.878 130.996 417.809 130.413 417.809 129.699C417.809 127.96 415.655 126.715 414.553 127.816ZM278.539 131.057C278.539 131.848 279.315 132.396 280.263 132.272C284.058 131.779 286.717 132.477 288.735 134.493C291.544 137.303 300.602 141.037 300.602 139.387C300.602 137.116 296.368 133.754 293.51 133.754C291.993 133.754 289.821 132.823 288.684 131.686C286.341 129.343 278.539 128.859 278.539 131.057ZM186.839 132.381C186.372 133.136 186.618 133.754 187.388 133.754C188.156 133.754 190.408 135.377 192.391 137.358L195.995 140.964L198.819 137.933C200.958 135.637 201.256 134.516 200.045 133.306C198.834 132.095 198.172 132.154 197.309 133.551C196.373 135.065 195.417 135.003 191.929 133.2C189.27 131.825 187.371 131.519 186.839 132.381ZM226.743 135.478L222.693 139.959L227.175 135.909C231.352 132.134 232.291 130.996 231.225 130.996C230.988 130.996 228.97 133.013 226.743 135.478ZM303.359 132.375C302.266 133.051 301.681 133.914 302.061 134.293C302.44 134.672 303.645 134.43 304.738 133.754C305.832 133.078 306.416 132.215 306.037 131.836C305.658 131.457 304.453 131.699 303.359 132.375ZM335.662 135.283C333.009 138.253 333.01 138.256 336.453 137.214C340.933 135.857 341.381 135.373 339.707 133.699C338.775 132.767 337.445 133.288 335.662 135.283ZM439.871 133.857C439.871 134.53 438.244 135.489 436.256 135.988L432.64 136.895L437.266 138.841C440.314 140.122 442.058 140.291 442.377 139.338C442.641 138.541 443.718 137.891 444.769 137.891C447.53 137.891 445.7 134.158 442.534 133.329C441.069 132.946 439.871 133.184 439.871 133.857ZM369.547 134.228C369.547 134.442 371.509 136.44 373.908 138.667C378.262 142.71 378.264 142.711 375.632 138.983C373.434 135.873 369.547 132.836 369.547 134.228ZM446.766 135.018C446.766 135.84 447.542 136.521 448.489 136.532C449.758 136.549 449.718 136.867 448.342 137.739C446.082 139.172 447.357 144.188 450.265 145.304C452.356 146.106 453.011 144.595 451.311 142.895C450.776 142.361 450.311 140.295 450.276 138.306C450.242 136.315 449.438 134.425 448.489 134.106C447.542 133.786 446.766 134.197 446.766 135.018ZM483.82 138.806C482.104 140.886 482.217 140.946 485.03 139.447C488.239 137.738 489.029 136.512 486.922 136.512C486.258 136.512 484.861 137.545 483.82 138.806ZM345.416 139.922C341.887 141.436 341.639 141.847 343.734 142.715C345.428 143.417 345.917 144.587 345.313 146.491C344.692 148.443 344.98 149.067 346.3 148.627C347.324 148.286 348.2 147.127 348.247 146.051C348.294 144.975 348.839 142.983 349.458 141.623C351.014 138.202 350.211 137.863 345.416 139.922ZM199.941 141.596C199.941 142.733 201.182 143.99 202.699 144.385C204.216 144.782 205.457 145.655 205.457 146.325C205.457 146.994 206.388 147.543 207.525 147.543C208.663 147.543 209.575 147.077 209.55 146.509C209.376 142.4 199.941 137.576 199.941 141.596ZM250.769 144.74C248.924 146.276 248.296 147.471 249.319 147.497C250.312 147.522 250.74 148.163 250.272 148.922C249.803 149.68 250.143 150.301 251.027 150.301C251.911 150.301 252.278 149.37 251.841 148.232C250.858 145.67 252.236 145.651 255.576 148.181C256.977 149.243 259.001 149.774 260.074 149.363C261.402 148.853 261.762 149.294 261.205 150.748C260.571 152.401 261.341 152.853 264.637 152.759C266.974 152.693 268.887 152.135 268.887 151.518C268.887 149.931 263.042 146.891 260.851 147.339C259.844 147.544 258.686 146.434 258.277 144.871C257.344 141.301 254.947 141.259 250.769 144.74ZM381.337 144.631C383.423 146.579 388.852 147.861 388.852 146.404C388.852 144.898 385.57 143.406 382.258 143.406C380.894 143.406 380.535 143.882 381.337 144.631ZM421.256 144.785C420.787 145.544 421.408 146.164 422.635 146.164C423.862 146.164 424.483 145.544 424.014 144.785C423.545 144.027 422.924 143.406 422.635 143.406C422.345 143.406 421.725 144.027 421.256 144.785ZM168.227 153.059C168.227 153.817 169.195 154.438 170.376 154.438C171.558 154.438 172.143 153.817 171.674 153.059C171.205 152.3 170.238 151.68 169.524 151.68C168.81 151.68 168.227 152.3 168.227 153.059ZM227.726 152.99C228.319 154.767 230.21 155.087 230.381 153.438C230.437 152.888 229.74 152.19 228.83 151.887C227.919 151.583 227.423 152.08 227.726 152.99ZM339.866 153.115C339.378 153.904 337.842 154.189 336.453 153.748C335.065 153.307 333.509 153.623 332.999 154.449C332.348 155.501 331.422 155.414 329.901 154.16C328.337 152.87 327.583 152.809 327.199 153.947C326.908 154.814 325.458 155.207 323.977 154.819C322.077 154.323 321.285 154.814 321.285 156.492C321.285 158.002 322.015 158.589 323.283 158.103C324.619 157.59 325.028 157.998 324.515 159.334C324.089 160.447 324.578 161.402 325.619 161.491C332.043 162.037 336.453 163.974 336.453 166.251C336.453 169.559 338.789 168.458 340.31 164.435C341.562 161.121 342.17 151.68 341.13 151.68C340.922 151.68 340.354 152.325 339.866 153.115ZM355.235 152.79C354.715 153.629 353.436 153.989 352.391 153.588C351.261 153.155 350.11 154.06 349.551 155.821C348.334 159.659 349.331 160.538 352.799 158.682C354.345 157.854 355.925 157.729 356.34 158.4C357.327 159.997 365.572 158.287 365.481 156.506C365.442 155.747 364.015 155.127 362.308 155.127C360.601 155.127 358.524 154.257 357.693 153.195C356.638 151.847 355.893 151.724 355.235 152.79ZM132.375 156.506C132.375 159.137 135.214 159.157 138.661 156.55C141.193 154.635 141.095 154.523 136.857 154.482C133.773 154.451 132.375 155.083 132.375 156.506ZM161.332 155.898C161.332 156.7 161.953 156.975 162.711 156.506C163.469 156.037 164.09 155.381 164.09 155.046C164.09 154.711 163.469 154.438 162.711 154.438C161.953 154.438 161.332 155.095 161.332 155.898ZM491 156.62C491.066 158.227 491.393 158.554 491.832 157.455C492.231 156.459 492.181 155.269 491.724 154.811C491.266 154.353 490.94 155.167 491 156.62ZM274.402 157.238C274.402 157.973 275.333 158.574 276.471 158.574C277.608 158.574 278.539 158.33 278.539 158.032C278.539 157.734 277.608 157.133 276.471 156.696C275.333 156.26 274.402 156.504 274.402 157.238ZM368.513 157.499C365.423 158.989 364.18 162.711 366.774 162.711C368.484 162.711 373.684 158.33 373.684 156.889C373.684 155.496 372.335 155.656 368.513 157.499ZM404.497 161.517C406.322 162.577 407.474 162.566 408.564 161.475C409.674 160.365 408.985 159.964 406.019 159.994C402.453 160.032 402.266 160.219 404.497 161.517ZM235.448 162.365C232.42 163.053 232.269 165.469 235.253 165.469C236.931 165.469 237.26 166.309 236.605 168.916C236.107 170.904 236.335 172.363 237.146 172.363C237.918 172.363 238.551 171.433 238.551 170.295C238.551 169.157 239.171 168.227 239.93 168.227C240.688 168.227 241.309 168.95 241.309 169.836C241.309 170.72 241.773 170.98 242.34 170.412C242.908 169.844 242.226 168.541 240.823 167.516C239.422 166.491 238.657 165.033 239.124 164.277C240.208 162.523 238.549 161.662 235.448 162.365ZM475.723 162.562C475.723 163.491 475.145 163.895 474.439 163.46C473.733 163.023 472.806 163.232 472.379 163.923C471.951 164.614 472.553 165.545 473.715 165.99C475.861 166.813 478.196 163.345 476.583 161.732C476.11 161.259 475.723 161.633 475.723 162.562ZM293.281 166.136C291.098 167.732 291.228 167.959 294.707 168.626C299.358 169.52 299.413 169.48 297.34 166.645C295.964 164.764 295.276 164.677 293.281 166.136ZM179.947 166.848C179.479 167.606 180.063 168.227 181.245 168.227C182.427 168.227 183.844 168.273 184.394 168.33C184.944 168.387 185.616 167.766 185.888 166.951C186.512 165.08 181.097 164.986 179.947 166.848ZM331.627 166.848C332.096 167.606 333.1 168.227 333.858 168.227C334.616 168.227 334.854 167.606 334.385 166.848C333.916 166.089 332.912 165.469 332.154 165.469C331.395 165.469 331.158 166.089 331.627 166.848ZM370.926 166.848C370.926 167.606 372.321 168.217 374.028 168.206C376.537 168.188 376.735 167.929 375.063 166.848C372.389 165.12 370.926 165.12 370.926 166.848ZM539.152 167.537C539.152 168.675 539.929 169.451 540.876 169.261C541.825 169.07 542.444 169.692 542.255 170.64C541.822 172.805 544.172 172.902 545.487 170.775C546.026 169.902 545.324 168.351 543.926 167.328C540.621 164.912 539.152 164.975 539.152 167.537ZM176.5 171.066C176.5 171.868 177.121 172.143 177.879 171.674C178.637 171.205 179.258 170.549 179.258 170.214C179.258 169.878 178.637 169.605 177.879 169.605C177.121 169.605 176.5 170.263 176.5 171.066ZM172.363 172.363C172.363 173.122 173.021 173.742 173.824 173.742C174.626 173.742 174.901 173.122 174.432 172.363C173.963 171.605 173.307 170.984 172.971 170.984C172.636 170.984 172.363 171.605 172.363 172.363ZM380.32 171.926C381.315 172.325 382.505 172.275 382.962 171.817C383.42 171.359 382.607 171.034 381.153 171.093C379.547 171.16 379.22 171.486 380.32 171.926ZM466.894 172.148C466.416 172.92 466.698 173.967 467.518 174.474C469.639 175.784 471.007 173.99 469.236 172.22C468.246 171.23 467.475 171.206 466.894 172.148ZM380.102 176.845C381.004 178.305 386.094 178.135 386.094 176.646C386.094 175.968 384.602 175.502 382.779 175.612C380.956 175.721 379.751 176.277 380.102 176.845ZM198.907 177.413C196.935 178.208 196.565 180.637 198.415 180.637C199.092 180.637 200.004 179.706 200.441 178.568C200.876 177.431 201.098 176.55 200.933 176.609C200.766 176.668 199.856 177.031 198.907 177.413ZM254.56 181.483C257.511 183.466 260.768 185.77 261.801 186.605C264.334 188.654 270.775 189.469 269.615 187.595C269.125 186.802 267.564 186.152 266.146 186.152C264.728 186.152 262.748 185.342 261.745 184.352C260.744 183.361 258.839 182.14 257.511 181.636C256.183 181.135 255.098 180.084 255.098 179.301C255.098 178.519 253.77 177.879 252.147 177.879C249.749 177.879 250.2 178.552 254.56 181.483ZM484.953 178.825C483.569 181.066 487.133 183.491 489.559 181.958C491.271 180.874 491.23 180.675 489.281 180.657C488.018 180.646 486.736 179.892 486.431 178.981C486.047 177.827 485.6 177.78 484.953 178.825ZM389.485 182.108C388.362 183.924 388.33 183.902 395.022 185.86C398.583 186.901 400.974 186.992 401.848 186.118C402.721 185.245 401.699 184.773 398.927 184.773C396.408 184.773 394.337 183.927 393.868 182.705C392.943 180.295 390.786 180 389.485 182.108ZM360.776 182.973C359.223 184.525 359.831 186.152 361.963 186.152C363.101 186.152 364.031 185.569 364.031 184.855C364.031 183.116 361.877 181.871 360.776 182.973ZM226.185 184.153C226.251 186.152 229.711 190.289 231.316 190.289C232.099 190.289 233.097 189.358 233.534 188.221C234.056 186.862 233.49 186.152 231.889 186.152C230.548 186.152 228.705 185.408 227.795 184.498C226.885 183.588 226.16 183.433 226.185 184.153ZM311.633 184.704C311.633 185.426 312.644 186.581 313.878 187.272C317.289 189.18 313.661 190.734 310.164 188.862C305.546 186.391 305.57 188.292 310.192 191.22C312.983 192.986 316.018 193.683 319.275 193.302C324.436 192.699 324.935 190.781 320.572 188.319C319.133 187.506 317.108 186.067 316.074 185.118C313.843 183.073 311.633 182.868 311.633 184.704ZM465.706 185.395C462.335 187.861 462.663 188.303 468.139 188.672C473.293 189.019 474.534 187.089 470.532 184.947C468.889 184.067 467.324 184.214 465.706 185.395ZM189.659 186.057C189.222 186.763 189.651 187.832 190.612 188.432C193.841 190.449 195.481 190.037 194.787 187.385C194.071 184.649 191.017 183.858 189.659 186.057ZM488.836 186.174C489.313 186.945 490.28 187.22 490.986 186.783C492.898 185.601 492.543 184.773 490.12 184.773C488.938 184.773 488.36 185.404 488.836 186.174ZM518.469 190.289C518.469 191.047 519.089 191.668 519.848 191.668C520.606 191.668 521.227 191.047 521.227 190.289C521.227 189.531 520.606 188.91 519.848 188.91C519.089 188.91 518.469 189.531 518.469 190.289ZM530.257 191.962C528.052 194.537 528.078 194.626 530.788 193.765C532.452 193.237 533.637 193.473 533.637 194.333C533.637 195.143 532.706 195.805 531.568 195.805C530.431 195.805 529.5 196.807 529.5 198.034C529.5 199.584 530.34 200.043 532.258 199.542C533.775 199.146 535.016 199.278 535.016 199.837C535.016 200.395 537.96 202.967 541.557 205.551C546.961 209.431 547.62 210.34 545.349 210.77C543.837 211.057 542.143 211.996 541.586 212.856C540.944 213.849 540.566 213.539 540.552 212.007C540.541 210.679 539.911 209.594 539.152 209.594C538.394 209.594 537.929 210.37 538.118 211.317C538.488 213.165 537.852 213.212 531.797 211.783C529.398 211.218 528.209 211.379 528.718 212.201C530.043 214.347 526.815 215.508 524.61 213.678C523.478 212.738 520.88 212.352 518.666 212.794C516.504 213.227 514.077 212.924 513.274 212.121C511.769 210.616 508.816 211.633 508.816 213.659C508.816 214.898 525.792 223.278 534.483 226.328C537.43 227.362 540.462 228.911 541.221 229.767C542.984 231.761 550.184 233.471 550.184 231.896C550.184 230.348 545.323 225.945 544.511 226.758C544.167 227.1 543.955 225.396 544.038 222.969C544.345 213.946 544.247 214.072 550.528 214.515C556.145 214.912 556.495 214.703 558.915 209.504C560.305 206.52 562.358 204.078 563.478 204.078C564.599 204.078 565.204 203.578 564.826 202.964C564.447 202.352 565.638 200.725 567.472 199.347L570.807 196.843L567.255 194.049C564.327 191.747 563.493 191.592 562.515 193.174C561.571 194.702 560.98 194.743 559.618 193.381C557.746 191.508 552.611 191.081 551.025 192.665C550.477 193.214 547.954 193.794 545.418 193.957C541.972 194.178 540.642 193.62 540.154 191.753C539.271 188.374 533.22 188.502 530.257 191.962ZM523.984 191.668C522.891 192.344 522.454 193.354 523.014 193.914C523.572 194.474 524.754 194.208 525.639 193.323C527.723 191.239 526.56 190.077 523.984 191.668ZM435.275 192.588C433.543 194.32 434.354 196.1 436.501 195.277C438.641 194.455 443.072 198.145 446.34 203.47C447.87 205.964 447.987 205.896 448.063 202.444C448.109 200.407 447.539 197.151 446.8 195.205C445.725 192.377 444.526 191.668 440.824 191.668C438.277 191.668 435.78 192.082 435.275 192.588ZM458.045 193.437C455.774 196.173 453.584 202.699 454.938 202.699C455.603 202.699 457.425 200.682 458.984 198.218C460.545 195.754 462.157 193.892 462.568 194.081C464.267 194.867 466.07 194.335 466.07 193.047C466.07 191.047 459.774 191.354 458.045 193.437ZM497.355 194.355C498.621 195.834 500.171 196.724 500.799 196.336C502.152 195.5 498.636 191.668 496.518 191.668C495.713 191.668 496.089 192.877 497.355 194.355ZM178.829 196.312C177.839 198.893 171.045 200.003 167.973 198.084C164.764 196.08 160.823 198.317 160.201 202.495C159.96 204.124 159.184 205.457 158.478 205.457C157.773 205.457 157.195 206.455 157.195 207.676C157.195 209.403 158.19 209.741 161.677 209.201C169.098 208.049 177.161 204.484 177.635 202.142C177.88 200.931 179.343 199.941 180.885 199.941C182.876 199.941 183.447 199.308 182.853 197.76C182.392 196.56 182.016 195.319 182.016 195.002C182.016 193.576 179.478 194.619 178.829 196.312ZM184.084 195.805C184.553 196.563 185.209 197.184 185.544 197.184C185.879 197.184 186.152 196.563 186.152 195.805C186.152 195.046 185.495 194.426 184.692 194.426C183.89 194.426 183.615 195.046 184.084 195.805ZM256.073 196.406C254.541 197.936 253.704 198.015 252.372 196.751C250.612 195.078 250.637 195.323 253.129 204.099C254.156 207.714 255.874 206.527 259.283 199.848C261.518 195.467 261.664 194.426 260.051 194.426C258.952 194.426 257.162 195.317 256.073 196.406ZM209.955 198.833C213.846 201.784 217.636 202.812 218.637 201.191C219.061 200.504 218.441 199.941 217.259 199.941C216.077 199.941 215.109 199.1 215.109 198.072C215.109 196.88 213.611 196.254 210.989 196.348L206.869 196.494L209.955 198.833ZM289.806 199.285C288.361 202.458 288.438 202.568 290.984 200.98C293.915 199.149 294.402 197.777 292.53 196.618C291.883 196.218 290.657 197.419 289.806 199.285ZM319.811 198.789C318.878 200.561 317.431 202.466 316.597 203.023C315.508 203.75 315.521 204.042 316.645 204.057C318.425 204.081 323.247 197.306 322.197 196.257C321.819 195.878 320.745 197.018 319.811 198.789ZM501.922 198.562C501.922 199.321 502.58 199.941 503.382 199.941C504.185 199.941 504.459 199.321 503.99 198.562C503.521 197.804 502.865 197.184 502.53 197.184C502.195 197.184 501.922 197.804 501.922 198.562ZM242.113 199.597C241.544 200.165 240.51 200.708 239.815 200.803C239.119 200.898 237.93 201.053 237.172 201.148C236.414 201.243 235.793 201.855 235.793 202.508C235.793 203.161 237.227 203.422 238.98 203.087C240.838 202.731 242.919 203.386 243.974 204.657C247.021 208.328 248.399 207.079 246.135 202.699C243.806 198.196 243.642 198.069 242.113 199.597ZM468.369 199.482C466.361 201.49 467.536 203.797 470.21 203.098C471.916 202.652 474.749 203.732 477.624 205.926C482.944 209.984 484.357 209.583 482.111 204.652C481.107 202.451 479.709 201.436 478.199 201.817C476.909 202.141 474.737 201.562 473.373 200.529C470.537 198.378 469.657 198.193 468.369 199.482ZM437.113 204.58C437.113 204.959 438.975 206.595 441.25 208.215C443.525 209.835 445.387 210.85 445.387 210.471C445.387 210.092 443.525 208.456 441.25 206.836C438.975 205.216 437.113 204.201 437.113 204.58ZM378.51 208.143C375.929 209.187 375.996 209.372 379.581 211.043C382.586 212.444 383.772 212.467 385.086 211.153C386.399 209.841 386.317 209.198 384.704 208.179C382.317 206.669 382.161 206.669 378.51 208.143ZM193.728 212.365C193.239 213.157 192.111 213.689 191.22 213.55C190.329 213.409 188.359 213.764 186.842 214.334C185.325 214.907 183.309 215.606 182.36 215.888C179.849 216.636 180.252 219.185 183.05 220.257C184.378 220.766 187.566 222.606 190.137 224.351C192.708 226.094 196.585 227.52 198.756 227.52C200.925 227.52 202.699 228.14 202.699 228.898C202.699 229.657 204.795 230.277 207.357 230.277C209.918 230.277 212.786 231.208 213.731 232.346C214.675 233.483 216.146 234.404 217.001 234.393C217.9 234.381 217.756 233.864 216.657 233.168C214.37 231.72 215.791 228.898 218.806 228.898C220.567 228.898 220.647 228.519 219.246 226.83C218.302 225.692 215.744 224.762 213.562 224.762C210.878 224.762 209.594 224.063 209.594 222.601C209.594 221.094 208.789 220.695 206.938 221.281C205.19 221.837 203.812 221.284 202.905 219.661C202.146 218.307 200.394 217.194 199.011 217.189C197.428 217.182 196.636 216.321 196.876 214.868C197.326 212.141 195.006 210.296 193.728 212.365ZM495.549 214.361C494.972 215.862 494.087 216.082 492.351 215.154C489.684 213.725 483.996 213.794 483.996 215.253C483.996 215.769 482.42 216.585 480.492 217.069C478.547 217.557 477.384 218.588 477.879 219.388C478.369 220.181 477.308 222.389 475.523 224.296L472.275 227.762L475.723 226.376C480.983 224.26 497.966 220.617 502.549 220.621C506.62 220.625 506.617 220.632 499.263 227.427C494.316 232 492.176 234.938 492.733 236.39C493.189 237.579 493.057 238.551 492.441 238.551C491.824 238.551 489.517 240.101 487.314 241.997C485.109 243.891 482.532 245.443 481.583 245.444C480.636 245.444 479.859 246.096 479.859 246.89C479.859 247.686 477.843 249.212 475.378 250.284C470.673 252.329 470.801 252.398 480.505 253.043C485.571 253.381 488.133 251.233 488.133 246.648C488.133 245.598 489.981 245.389 493.821 246.002C498.953 246.823 499.441 246.655 498.821 244.282C498.229 242.021 499.11 241.536 505.095 240.827C511.854 240.026 514.267 238.413 514.311 234.666C514.324 233.514 513.386 233.15 511.745 233.671C509.903 234.255 508.947 233.687 508.428 231.696C508.025 230.159 508.157 228.617 508.72 228.268C509.283 227.921 509.629 226.214 509.489 224.475C509.349 222.738 509.841 220.919 510.581 220.435C512.422 219.231 510.558 216.55 506.959 215.227C499.619 212.527 496.348 212.278 495.549 214.361ZM160.652 215.094C160.137 215.927 160.796 218.259 162.117 220.273C164.397 223.755 164.397 224.009 162.115 225.384C155.189 229.556 155.105 229.748 159.076 232.35C162.705 234.727 162.905 234.713 165.954 231.848C167.681 230.226 170.295 228.908 171.762 228.919C173.391 228.933 173.828 229.336 172.882 229.953C170.812 231.306 173.018 237.172 175.597 237.172C176.667 237.172 178.349 236.198 179.336 235.008C180.863 233.17 180.544 232.375 177.214 229.72C173.308 226.605 173.337 223.383 177.271 223.383C180.302 223.383 179.637 218.168 176.384 216.426C172.18 214.176 161.765 213.293 160.652 215.094ZM337.832 217.867C337.832 218.626 338.49 219.246 339.292 219.246C340.095 219.246 340.369 218.626 339.9 217.867C339.432 217.109 338.775 216.488 338.44 216.488C338.105 216.488 337.832 217.109 337.832 217.867ZM351.049 219.056C350.417 220.079 350.97 221.902 352.389 223.47C355.399 226.796 358.35 227.042 355.461 223.728C354.306 222.4 353.083 220.414 352.744 219.314C352.264 217.758 351.887 217.7 351.049 219.056ZM420.566 227.26C420.566 229.158 427.051 232.071 428.829 230.974C429.725 230.419 429.94 229.496 429.305 228.921C427.487 227.274 420.566 225.96 420.566 227.26ZM317.148 230.967C317.148 232.104 316.409 233.035 315.506 233.035C314.603 233.035 315.068 233.947 316.54 235.059C318.012 236.174 319.837 237.084 320.596 237.084C321.354 237.084 320.77 236.174 319.298 235.059C317.129 233.42 317.035 233.035 318.806 233.035C320.007 233.035 321.347 232.104 321.784 230.967C322.324 229.56 321.71 228.898 319.864 228.898C318.369 228.898 317.148 229.829 317.148 230.967ZM153.161 237.739C152.056 239.069 152.004 239.967 152.991 240.578C154.917 241.768 157.195 240.251 157.195 237.78C157.195 235.248 155.244 235.228 153.161 237.739ZM379.199 239.018C379.199 240.035 380.751 241.573 382.647 242.437C386.687 244.277 387.172 242.712 383.572 239.454C380.518 236.691 379.199 236.558 379.199 239.018ZM253.26 239.471C252.754 239.975 252.34 241.03 252.34 241.815C252.34 242.678 252.982 242.596 253.971 241.608C254.869 240.71 255.283 239.655 254.891 239.264C254.499 238.871 253.764 238.964 253.26 239.471ZM572.748 241.806C573.413 243.684 573.123 244.168 571.673 243.613C570.582 243.194 569.018 243.66 568.198 244.648C567.023 246.066 567.443 246.306 570.186 245.782C574.494 244.957 575.869 242.958 573.578 240.844C572.214 239.585 572.035 239.793 572.748 241.806ZM160.28 244.291C158.209 246.362 158.037 249.582 159.996 249.582C161.662 249.582 163.188 246.187 162.479 244.06C162.15 243.074 161.422 243.149 160.28 244.291ZM392.357 244.542C390.013 246.257 390.164 246.466 394.382 247.31C399.759 248.385 400.927 247.675 398.532 244.789C396.393 242.213 395.588 242.18 392.357 244.542ZM143.062 244.979C144.01 245.363 145.562 245.363 146.509 244.979C147.458 244.597 146.681 244.284 144.785 244.284C142.889 244.284 142.114 244.597 143.062 244.979ZM618.44 245.445C617.971 246.204 618.208 246.824 618.966 246.824C619.725 246.824 620.728 246.204 621.197 245.445C621.666 244.687 621.429 244.066 620.671 244.066C619.912 244.066 618.908 244.687 618.44 245.445ZM306.84 246.562C305.249 248.152 306.316 249.011 310.254 249.31C312.529 249.484 314.391 249.068 314.391 248.385C314.391 246.994 307.961 245.441 306.84 246.562ZM401.6 249.927C401.911 250.875 403.587 251.859 405.321 252.112C408.706 252.607 412.077 250.285 410.403 248.611C409.843 248.051 408.809 248.507 408.103 249.622C407.234 250.995 406.813 251.095 406.798 249.927C406.787 248.979 405.485 248.203 403.905 248.203C402.223 248.203 401.267 248.917 401.6 249.927ZM273.634 251.537C270.231 254.025 271.403 255.169 277.706 255.514C281.063 255.697 282.488 256.354 282.044 257.511C281.68 258.459 282.295 259.234 283.408 259.234C284.522 259.234 285.434 258.304 285.434 257.166C285.434 256.028 286.054 255.098 286.813 255.098C287.571 255.098 288.191 256.066 288.191 257.247C288.191 258.429 288.812 259.014 289.57 258.545C290.329 258.076 290.949 256.62 290.949 255.309C290.949 253.462 289.634 252.873 285.11 252.693C281.897 252.565 279.053 251.813 278.789 251.022C278.141 249.077 276.817 249.21 273.634 251.537ZM528.121 253.731L524.674 254.611L527.88 255.67C531.222 256.773 532.892 256.129 532.057 254.061C531.788 253.395 530.017 253.247 528.121 253.731ZM197.224 256.423C194.784 257.966 195.325 258.566 200.202 259.735C204.714 260.816 206.578 258.553 202.829 256.546C199.591 254.814 199.764 254.816 197.224 256.423ZM568.109 256.507C568.109 258.628 573.33 260.828 574.368 259.146C575.517 257.29 574.767 256.539 571.053 255.823C569.435 255.511 568.109 255.819 568.109 256.507ZM206.939 259.466C205.239 260.095 204.103 261.387 204.416 262.336C205.122 264.48 210.973 265.489 210.973 263.468C210.973 262.655 212.214 261.992 213.731 261.992C215.247 261.992 216.488 261.443 216.488 260.775C216.488 258.972 210.494 258.151 206.939 259.466ZM542.681 259.102C542.105 260.034 541.851 260.917 542.117 261.064C542.382 261.212 543.995 262.508 545.702 263.945C549.442 267.093 549.804 264.91 546.266 260.542C544.428 258.272 543.439 257.875 542.681 259.102ZM154.54 262.559C153.435 263.89 153.383 264.787 154.37 265.398C156.296 266.588 158.574 265.071 158.574 262.6C158.574 260.069 156.623 260.048 154.54 262.559ZM453.66 261.401C453.66 261.835 454.631 263.16 455.817 264.346C458.18 266.709 461.626 264.842 459.94 262.112C458.992 260.58 453.66 259.976 453.66 261.401ZM526.053 261.992C526.522 262.751 527.178 263.371 527.513 263.371C527.848 263.371 528.121 262.751 528.121 261.992C528.121 261.234 527.463 260.613 526.661 260.613C525.858 260.613 525.584 261.234 526.053 261.992ZM213.041 266.129C212.572 266.887 212.847 267.508 213.649 267.508C214.452 267.508 215.109 266.887 215.109 266.129C215.109 265.371 214.836 264.75 214.501 264.75C214.166 264.75 213.51 265.371 213.041 266.129ZM524.023 266.077C522.276 267.181 522.315 267.483 524.302 268.246C526.832 269.216 529.5 268.088 529.5 266.048C529.5 264.397 526.655 264.411 524.023 266.077ZM148.148 270.354C145.921 272.677 145.031 274.202 146.167 273.742C148.02 272.992 153.903 266.129 152.692 266.129C152.419 266.129 150.374 268.03 148.148 270.354ZM238.591 267.454C237.475 268.16 236.921 269.096 237.359 269.535C237.799 269.973 238.942 269.386 239.902 268.23C241.892 265.834 241.51 265.608 238.591 267.454ZM464.002 267.508C464.471 268.266 465.127 268.887 465.462 268.887C465.797 268.887 466.07 268.266 466.07 267.508C466.07 266.749 465.413 266.129 464.61 266.129C463.808 266.129 463.533 266.749 464.002 267.508ZM468.139 270.266C468.608 271.024 469.264 271.645 469.599 271.645C469.934 271.645 470.207 271.024 470.207 270.266C470.207 269.507 469.549 268.887 468.747 268.887C467.944 268.887 467.67 269.507 468.139 270.266ZM110.136 272.599C109.096 273.883 108.967 274.499 109.851 273.969C110.733 273.44 111.77 273.786 112.155 274.739C112.538 275.692 112.902 275.075 112.961 273.368C113.092 269.652 112.629 269.527 110.136 272.599ZM260.958 271.178C258.333 272.237 258.887 273.801 262.467 275.432C265.427 276.781 265.645 276.627 265.063 273.585C264.416 270.202 263.993 269.954 260.958 271.178ZM114.449 275.092C114.449 276.229 115.38 277.16 116.518 277.16C117.655 277.16 118.586 277.847 118.586 278.687C118.586 279.526 119.517 279.856 120.654 279.419C121.792 278.983 122.723 279.227 122.723 279.961C122.723 280.696 123.653 281.297 124.791 281.297C125.929 281.297 126.705 281.995 126.515 282.848C126.324 283.702 126.946 284.683 127.894 285.031C128.842 285.378 129.617 284.681 129.617 283.48C129.617 281.043 124.289 275.135 123.134 276.29C122.727 276.697 121.493 276.127 120.392 275.026C117.786 272.421 114.449 272.457 114.449 275.092ZM171.329 274.706C167.668 276.472 167.159 280.223 170.64 279.792C171.968 279.628 174.138 279.966 175.466 280.543C176.794 281.12 178.8 281.239 179.927 280.806C181.129 280.344 182.57 281.137 183.422 282.727C185.064 285.796 188.222 286.464 187.085 283.502C186.643 282.352 187.422 281.286 189.005 280.872C190.969 280.359 191.668 280.887 191.668 282.887C191.668 284.377 192.298 285.206 193.069 284.73C193.84 284.253 194.146 283.339 193.75 282.698C193.354 282.057 193.764 281.287 194.662 280.988C197.894 279.911 194.07 276.981 189.807 277.269C180.32 277.908 176.552 277.248 177.38 275.092C178.305 272.68 175.853 272.524 171.329 274.706ZM485.375 275.092C485.375 276.229 485.996 277.16 486.754 277.16C487.512 277.16 488.133 276.229 488.133 275.092C488.133 273.954 487.512 273.023 486.754 273.023C485.996 273.023 485.375 273.954 485.375 275.092ZM494.338 277.16C495.71 278.677 497.402 279.918 498.097 279.918C498.792 279.918 500.292 280.849 501.43 281.986C502.567 283.124 504.365 284.055 505.424 284.055C506.57 284.055 507.029 283.216 506.558 281.986C505.955 280.416 506.816 279.918 510.129 279.918C512.847 279.918 514.154 279.368 513.593 278.459C513.09 277.646 510 277.242 506.601 277.545C502.618 277.902 499.978 277.451 498.978 276.246C498.137 275.232 496.186 274.402 494.645 274.402C491.929 274.402 491.919 274.488 494.338 277.16ZM237.172 279.918C237.172 280.676 237.83 281.297 238.632 281.297C239.435 281.297 239.709 280.676 239.24 279.918C238.771 279.16 238.115 278.539 237.78 278.539C237.445 278.539 237.172 279.16 237.172 279.918ZM531.076 285.305C529.689 286.167 529.624 286.726 530.824 287.467C532.716 288.637 534.136 287.601 533.435 285.565C533.149 284.729 532.175 284.623 531.076 285.305ZM566.731 286.812C566.731 288.344 567.65 289.57 568.799 289.57C571.12 289.57 571.213 289.318 570.03 286.236C568.849 283.154 566.731 283.525 566.731 286.812ZM352.075 287.618C351.475 289.183 350.951 289.339 350.228 288.168C348.738 285.756 347.129 298.608 348.275 303.772C349.251 308.176 349.26 308.166 352.33 299.912C357.432 286.193 357.578 285.434 355.118 285.434C353.906 285.434 352.537 286.417 352.075 287.618ZM217.251 288.074C216.807 288.793 217.032 289.743 217.75 290.187C218.468 290.631 219.419 290.406 219.863 289.688C220.307 288.969 220.082 288.019 219.363 287.575C218.645 287.131 217.695 287.356 217.251 288.074ZM301.233 289.507C302.402 290.799 303.359 292.507 303.359 293.303C303.359 295.144 310.908 298.326 313.286 297.489C314.273 297.143 312.707 295.853 309.807 294.621C305.658 292.86 304.712 291.826 305.364 289.77C306.032 287.669 305.501 287.157 302.651 287.157C299.401 287.157 299.283 287.352 301.233 289.507ZM154.478 290.895C153.362 291.601 152.787 292.516 153.199 292.928C153.612 293.342 155.145 292.773 156.607 291.668C159.513 289.468 157.747 288.827 154.478 290.895ZM361.975 293.979C361.464 296.484 359.448 303.969 357.495 310.611C352.5 327.607 354.642 328.828 363.473 314.014C370.609 302.044 375.035 296.286 376.436 297.152C377.092 297.557 378.019 297.258 378.496 296.487C379.307 295.176 376.578 294.472 372.649 294.983C371.702 295.107 370.926 294.631 370.926 293.928C370.926 293.226 369.839 292.266 368.513 291.799C367.186 291.33 365.38 290.604 364.502 290.185C363.534 289.725 362.538 291.219 361.975 293.979ZM572.936 290.949C573.404 291.708 574.408 292.328 575.167 292.328C575.925 292.328 576.162 291.708 575.693 290.949C575.225 290.191 574.221 289.57 573.462 289.57C572.704 289.57 572.467 290.191 572.936 290.949ZM327.533 295.647C330.398 300.02 328.082 301.316 323.643 297.824C321.728 296.319 319.52 295.086 318.736 295.086C315.195 295.086 316.272 298.361 323.115 308.41C327.163 314.353 332.796 323.096 335.633 327.835C338.469 332.576 341.148 336.453 341.585 336.453C342.957 336.453 340.722 312.071 338.425 301.971L336.233 292.328H330.796C325.368 292.328 325.363 292.335 327.533 295.647ZM396.005 293.794C396.336 294.788 397.423 295.875 398.418 296.207C399.453 296.552 399.97 296.035 399.625 295C399.293 294.005 398.206 292.918 397.212 292.587C396.178 292.243 395.661 292.76 396.005 293.794ZM99.0235 294.649C100.018 295.047 101.208 294.998 101.665 294.54C102.123 294.082 101.31 293.757 99.8563 293.816C98.2499 293.882 97.9231 294.209 99.0235 294.649ZM526.742 294.348C526.742 294.7 527.983 295.653 529.5 296.465C531.701 297.642 532.258 297.513 532.258 295.824C532.258 294.627 531.06 293.707 529.5 293.707C527.983 293.707 526.742 293.995 526.742 294.348ZM168.227 296.465C168.227 297.223 168.847 297.844 169.606 297.844C170.364 297.844 170.984 297.223 170.984 296.465C170.984 295.706 170.364 295.086 169.606 295.086C168.847 295.086 168.227 295.706 168.227 296.465ZM385.477 298.171C383.215 299.425 366.57 324.279 361.956 333.291C359.274 338.534 358.386 342.922 357.666 354.513C356.789 368.611 356.868 369.202 359.863 371.301C365.671 375.369 371.027 371.193 377.152 357.826C379.584 352.517 382.932 342.589 384.592 335.764C386.252 328.938 389.751 317.599 392.368 310.567C394.984 303.533 397.125 297.591 397.125 297.364C397.125 296.509 387.241 297.194 385.477 298.171ZM402.383 297.407C403.377 297.805 404.567 297.756 405.025 297.298C405.483 296.84 404.669 296.514 403.216 296.574C401.609 296.64 401.282 296.967 402.383 297.407ZM163.4 299.223C162.395 300.85 163.7 303.359 165.55 303.359C166.264 303.359 166.848 302.118 166.848 300.602C166.848 297.693 164.841 296.891 163.4 299.223ZM600.617 301.825C602.283 303.457 603.78 303.95 604.639 303.147C606.163 301.718 603.219 299.279 599.928 299.243C598.476 299.228 598.656 299.902 600.617 301.825ZM528.811 301.98C528.26 302.871 528.43 304.22 529.188 304.978C530.108 305.898 530.901 305.818 531.568 304.738C532.119 303.848 531.949 302.499 531.191 301.741C530.271 300.821 529.478 300.901 528.811 301.98ZM546.432 304.049C546.794 307.328 548.554 308.825 552.076 308.854C554.216 308.871 554.363 308.521 552.941 306.807C551.997 305.669 550.422 304.738 549.44 304.738C548.459 304.738 547.311 303.963 546.891 303.015C546.472 302.067 546.265 302.532 546.432 304.049ZM515.022 304.738C515.49 305.497 516.147 306.117 516.482 306.117C516.817 306.117 517.09 305.497 517.09 304.738C517.09 303.98 516.432 303.359 515.63 303.359C514.827 303.359 514.553 303.98 515.022 304.738ZM137.432 305.658C135.778 307.31 136.461 308.283 139.27 308.283C140.786 308.283 142.027 307.486 142.027 306.512C142.027 304.649 139.002 304.086 137.432 305.658ZM207.525 306.117C207.057 306.876 205.362 307.496 203.761 307.496C202.159 307.496 199.757 308.483 198.422 309.691C196.173 311.727 196.052 311.676 196.751 309.002C197.694 305.396 195.612 305.279 192.461 308.761C190.552 310.869 190.38 311.984 191.606 314.276C193.411 317.648 197.909 318.083 199.091 315.001C200.038 312.535 205.356 312.86 211.306 315.746C214.457 317.275 214.802 317.928 213.375 319.658C212.433 320.8 212.283 321.43 213.041 321.058C213.799 320.687 216.437 319.519 218.901 318.463C224.668 315.993 224.555 314.917 218.409 313.765C215.675 313.252 211.869 312.235 209.954 311.507C206.584 310.226 206.551 310.097 208.936 307.462C210.292 305.964 210.72 304.738 209.889 304.738C209.057 304.738 207.994 305.359 207.525 306.117ZM171.788 307.311C171.194 308.272 171.081 309.431 171.536 309.886C172.77 311.12 174.116 309.305 173.449 307.306C172.982 305.905 172.657 305.905 171.788 307.311ZM480.958 310.246C482.282 312.573 484.462 314.377 485.956 314.382C487.413 314.387 489.691 315.372 491.018 316.573C493.233 318.578 493.555 318.522 494.967 315.884C495.812 314.304 497.723 313.012 499.212 313.012C500.703 313.012 501.922 312.322 501.922 311.48C501.922 310.475 500.259 310.259 497.096 310.852C494.327 311.372 492.27 311.198 492.27 310.446C492.27 309.724 491.067 309.447 489.597 309.832C488.129 310.217 485.507 309.538 483.776 308.323C479.127 305.068 478.323 305.617 480.958 310.246ZM108.244 308.875C107.775 309.633 108.05 310.254 108.852 310.254C109.655 310.254 110.313 309.633 110.313 308.875C110.313 308.117 110.04 307.496 109.704 307.496C109.369 307.496 108.713 308.117 108.244 308.875ZM310.254 308.216C310.254 308.612 312.726 313.854 315.749 319.866C321.049 330.407 329.188 341.42 330.619 339.989C331.51 339.098 312.742 307.496 311.323 307.496C310.735 307.496 310.254 307.82 310.254 308.216ZM128.238 311.605C128.238 314.082 129.973 317.148 131.374 317.148C132.176 317.148 132.443 316.757 131.964 316.278C131.486 315.798 131.644 314.375 132.32 313.117C133.256 311.367 132.918 310.778 130.891 310.625C129.432 310.516 128.238 310.957 128.238 311.605ZM503.301 311.633C503.301 312.391 503.921 313.012 504.68 313.012C505.438 313.012 506.059 312.391 506.059 311.633C506.059 310.874 505.438 310.254 504.68 310.254C503.921 310.254 503.301 310.874 503.301 311.633ZM531.144 311.736C531.415 312.551 532.228 313.219 532.947 313.219C533.667 313.219 534.479 312.551 534.751 311.736C535.023 310.921 534.212 310.254 532.947 310.254C531.683 310.254 530.872 310.921 531.144 311.736ZM404.06 312.958C402.944 313.664 402.493 314.702 403.059 315.268C403.622 315.833 405.134 315.246 406.416 313.963C408.908 311.471 407.417 310.834 404.06 312.958ZM410.345 314.435C403.616 317.794 400.359 320.694 399.46 324.133C399.076 325.6 399.058 326.801 399.42 326.801C401.405 326.801 417.694 313.941 417.042 312.888C416.103 311.368 416.825 311.201 410.345 314.435ZM556.389 313.012C556.858 313.77 557.861 314.391 558.62 314.391C559.378 314.391 559.615 313.77 559.147 313.012C558.678 312.253 557.674 311.633 556.915 311.633C556.157 311.633 555.92 312.253 556.389 313.012ZM101.424 314.269C100.997 314.961 101.563 315.393 102.682 315.229C105.635 314.796 107.032 313.012 104.419 313.012C103.199 313.012 101.852 313.577 101.424 314.269ZM275.068 317.493C274.608 319.957 274.779 323.456 275.45 325.265L276.671 328.555L278.429 324.309C281.297 317.384 291.442 317.751 303.444 325.211L310.113 329.357L307.826 324.287C306.567 321.499 304.64 318.132 303.546 316.804C301.235 314.005 296.957 313.607 296.116 316.114C295.667 317.455 294.701 317.393 291.779 315.836C288.635 314.16 287.545 314.131 285.105 315.655C282.619 317.208 281.948 317.147 280.556 315.244C278.014 311.765 275.984 312.597 275.068 317.493ZM440.715 315.884C440.049 317.395 437.901 318.068 433.742 318.068C428.364 318.068 426.446 319.094 415.531 327.816C408.821 333.177 401.92 339.076 400.195 340.924C397.28 344.05 393.646 353 395.292 353C395.695 353 400.273 349.066 405.466 344.259C416.23 334.294 434.289 321.405 438.672 320.561C442.519 319.821 442.993 319.25 442.275 316.222C441.758 314.039 441.548 313.995 440.715 315.884ZM170.984 317.718C170.984 318.791 173.566 321.565 176.719 323.886C183.01 328.511 218.439 343.927 226.141 345.388L230.967 346.305L226.141 343.248C223.486 341.566 216.971 338.342 211.662 336.084C192.96 328.125 181.279 322.414 176.937 319.109C171.86 315.247 170.984 315.041 170.984 317.718ZM124.402 318.74C125.118 320.888 128.202 321.263 128.311 319.217C128.351 318.458 127.349 317.624 126.084 317.361C124.646 317.064 124.016 317.58 124.402 318.74ZM523.769 320.251C521.992 322.045 514.642 326.248 507.438 329.59C492.642 336.456 482.599 341.927 484.75 341.952C485.545 341.962 493.611 339.425 502.676 336.314C522.528 329.503 529.19 327.985 529.951 330.098C530.253 330.939 531.006 331.155 531.624 330.579C533.044 329.253 528.227 325.524 525.019 325.466C523.692 325.441 522.605 324.868 522.605 324.191C522.605 322.499 526.156 321.285 531.106 321.285C536.218 321.285 535.758 318.034 530.558 317.415C528.242 317.139 525.872 318.129 523.769 320.251ZM251.995 320.818C249.91 321.915 248.203 323.267 248.203 323.821C248.203 324.374 251.692 328.218 255.957 332.363L263.71 339.9L262.864 334.385C261.427 325.029 259.182 318.52 257.446 318.674C256.533 318.753 254.08 319.719 251.995 320.818ZM586.035 319.906C586.035 320.665 586.656 321.285 587.414 321.285C588.172 321.285 588.793 320.665 588.793 319.906C588.793 319.148 588.172 318.527 587.414 318.527C586.656 318.527 586.035 319.148 586.035 319.906ZM452.775 321.604C451.789 323.198 452.638 324.014 455.887 324.593C457.317 324.85 460.851 325.485 463.74 326.008L468.994 326.957L466.669 323.407C465.002 320.863 463.868 320.252 462.667 321.249C461.745 322.015 460.57 322.219 460.056 321.704C458.623 320.272 453.64 320.203 452.775 321.604ZM593.11 324.515C591.57 326.371 592.316 328.18 594.62 328.18C595.296 328.18 595.503 327.617 595.078 326.929C594.652 326.242 595.547 326.004 597.065 326.401C600.318 327.252 600.823 324.721 597.643 323.501C594.779 322.402 594.884 322.379 593.11 324.515ZM150.175 325.528C148.762 326.424 149.265 326.765 152.024 326.78C156.142 326.802 156.884 326.126 153.967 325.008C152.951 324.618 151.244 324.852 150.175 325.528ZM217.178 326.248C218.695 327.329 229.864 334.775 241.998 342.796C254.132 350.816 265.456 358.673 267.163 360.256C268.87 361.839 270.266 362.466 270.266 361.653C270.266 359.07 255.462 346.525 248.598 343.29C240.572 339.509 234.414 334.046 234.414 330.706C234.414 329.254 233.133 327.962 231.312 327.578C216.481 324.454 214.384 324.257 217.178 326.248ZM450.48 326.456C449.257 328.62 442.392 357.359 442.963 357.93C443.291 358.259 447.366 356.069 452.017 353.063C456.668 350.057 462.507 346.565 464.995 345.303C471.772 341.864 482.617 333.356 482.617 331.478C482.617 330.571 480.735 329.173 478.434 328.37C475.352 327.296 474.504 327.322 475.213 328.469C475.84 329.486 475.392 329.727 473.925 329.164C470.439 327.827 469.828 330.477 472.95 333.385C475.617 335.87 475.636 336.102 473.325 338.116C468.154 342.629 464.781 343.634 462.492 341.345C461.319 340.172 459.449 339.211 458.339 339.211C456.742 339.211 456.632 339.791 457.812 341.998C459.82 345.747 458.466 347.484 453.536 347.484C449.077 347.484 447.2 344.83 448.906 340.935C449.486 339.607 449.863 338.055 449.743 337.487C449.621 336.919 449.988 336.45 450.558 336.446C451.127 336.442 451.732 333.96 451.905 330.931C452.204 325.662 451.745 324.219 450.48 326.456ZM174.483 329.476C173.3 331.391 179.225 336.379 181.601 335.467C183.192 334.856 182.809 333.968 179.856 331.433C175.542 327.725 175.561 327.732 174.483 329.476ZM277.8 336.108C279.201 343.749 291.734 374.963 296.279 382.131C300.742 389.17 333.291 419.17 338.694 421.224C345.724 423.898 347.771 415.11 344.631 395.746C342.114 380.218 337.624 371.13 328.627 363.342C324.246 359.55 315.623 351.687 309.465 345.868C297.401 334.467 290.991 330.938 282.355 330.938H276.853L277.8 336.108ZM531.982 333.971C533.269 335.258 534.005 335.258 535.291 333.971C536.578 332.685 536.211 332.316 533.637 332.316C531.062 332.316 530.696 332.685 531.982 333.971ZM141.352 336.475C141.829 337.246 142.795 337.52 143.501 337.083C145.414 335.902 145.058 335.074 142.636 335.074C141.454 335.074 140.876 335.704 141.352 336.475ZM535.016 336.231C535.016 337.705 542.015 340.946 543.022 339.938C543.983 338.977 539.028 335.176 536.739 335.118C535.792 335.094 535.016 335.595 535.016 336.231ZM568.799 336.453C569.268 337.212 569.924 337.832 570.259 337.832C570.594 337.832 570.867 337.212 570.867 336.453C570.867 335.695 570.21 335.074 569.407 335.074C568.604 335.074 568.33 335.695 568.799 336.453ZM168.227 337.832C168.227 338.59 169.12 339.211 170.214 339.211C171.307 339.211 172.584 338.59 173.053 337.832C173.522 337.074 172.627 336.453 171.066 336.453C169.505 336.453 168.227 337.074 168.227 337.832ZM423.148 344.463C410.375 354.682 373.492 392.292 370.054 398.603C367.954 402.456 367.479 406.318 367.479 419.491C367.479 434.209 367.745 435.918 370.456 438.631C374.81 442.992 379.405 441.228 389.869 431.178C406.058 415.634 416.999 395.656 426.268 364.721C432.644 343.444 434.295 337.311 433.783 336.801C433.524 336.541 428.738 339.99 423.148 344.463ZM544.668 341.198C544.668 342.38 545.289 343.348 546.047 343.348C546.805 343.348 547.426 342.764 547.426 342.05C547.426 341.336 546.805 340.369 546.047 339.9C545.289 339.432 544.668 340.016 544.668 341.198ZM568.486 341.969C572.442 345.081 573.625 345.38 573.625 343.266C573.625 342.464 573.069 342.149 572.391 342.569C571.711 342.989 570.801 342.404 570.365 341.271C569.931 340.138 568.541 339.211 567.278 339.211C565.536 339.211 565.829 339.878 568.486 341.969ZM161.725 342.457C162.477 344.711 165.469 345.147 165.469 343.003C165.469 341.929 164.522 341.049 163.362 341.049C162.204 341.049 161.467 341.683 161.725 342.457ZM157.999 343.163C157.405 344.124 157.292 345.282 157.747 345.737C158.981 346.971 160.327 345.157 159.659 343.157C159.193 341.756 158.868 341.756 157.999 343.163ZM548.805 346.105C548.805 346.864 549.736 347.484 550.873 347.484C552.011 347.484 552.941 346.864 552.941 346.105C552.941 345.347 552.011 344.727 550.873 344.727C549.736 344.727 548.805 345.347 548.805 346.105ZM515.711 355.676C515.711 356.391 516.331 357.357 517.09 357.826C517.848 358.295 518.469 357.71 518.469 356.529C518.469 355.347 517.848 354.379 517.09 354.379C516.331 354.379 515.711 354.962 515.711 355.676ZM172.363 361.493C172.363 363.811 175.556 364.188 177.627 362.116C179.696 360.048 179.581 359.899 176.115 360.185C174.053 360.356 172.363 360.945 172.363 361.493Z" fill="#141434"/>
</svg>
